<svg width="512" height="512" viewBox="0 0 512 512" fill="none" xmlns="http://www.w3.org/2000/svg">
<g id="Vector">
<path d="M0 511.905H15.695V207.716H176.021V511.905H191.716V192.021H0V511.905Z" fill="#FF4500"/>
<path d="M343.733 0H144.017V183.867H159.712V15.695H328.038V248.027H288.032V511.905H303.727V263.722H432.048V511.905H447.744V248.027H343.733V0Z" fill="#FF4500"/>
<path d="M167.867 224.027H23.849V239.722H167.867V224.027Z" fill="#FF4500"/>
<path d="M319.886 32.003H167.864V47.698H319.886V32.003Z" fill="#FF4500"/>
<path d="M55.696 263.882H40.001V295.885H55.696V263.882Z" fill="#FF4500"/>
<path d="M103.702 263.882H88.007V295.885H103.702V263.882Z" fill="#FF4500"/>
<path d="M151.708 263.882H136.013V295.885H151.708V263.882Z" fill="#FF4500"/>
<path d="M55.696 327.886H40.001V359.89H55.696V327.886Z" fill="#FF4500"/>
<path d="M103.702 327.886H88.007V359.89H103.702V327.886Z" fill="#FF4500"/>
<path d="M151.708 327.886H136.013V359.89H151.708V327.886Z" fill="#FF4500"/>
<path d="M55.696 391.89H40.001V423.893H55.696V391.89Z" fill="#FF4500"/>
<path d="M103.702 391.89H88.007V423.893H103.702V391.89Z" fill="#FF4500"/>
<path d="M151.708 391.89H136.013V423.893H151.708V391.89Z" fill="#FF4500"/>
<path d="M55.696 455.895H40.001V487.898H55.696V455.895Z" fill="#FF4500"/>
<path d="M103.702 455.895H88.007V487.898H103.702V455.895Z" fill="#FF4500"/>
<path d="M151.708 455.895H136.013V487.898H151.708V455.895Z" fill="#FF4500"/>
<path d="M176.021 64.007V119.707H311.729V64.007H176.021ZM191.716 104.011V79.703H296.034V104.011H191.716Z" fill="#FF4500"/>
<path d="M191.72 135.862H176.025V167.865H191.72V135.862Z" fill="#FF4500"/>
<path d="M231.721 135.862H216.026V167.865H231.721V135.862Z" fill="#FF4500"/>
<path d="M271.723 135.862H256.028V167.865H271.723V135.862Z" fill="#FF4500"/>
<path d="M311.724 135.862H296.029V167.865H311.724V135.862Z" fill="#FF4500"/>
<path d="M231.721 191.862H216.026V223.865H231.721V191.862Z" fill="#FF4500"/>
<path d="M271.723 191.862H256.028V223.865H271.723V191.862Z" fill="#FF4500"/>
<path d="M231.721 247.873H216.026V279.877H231.721V247.873Z" fill="#FF4500"/>
<path d="M271.723 247.873H256.028V279.877H271.723V247.873Z" fill="#FF4500"/>
<path d="M231.721 303.883H216.026V335.886H231.721V303.883Z" fill="#FF4500"/>
<path d="M271.723 303.883H256.028V335.886H271.723V303.883Z" fill="#FF4500"/>
<path d="M231.721 359.883H216.026V391.886H231.721V359.883Z" fill="#FF4500"/>
<path d="M271.723 359.883H256.028V391.886H271.723V359.883Z" fill="#FF4500"/>
<path d="M231.721 415.893H216.026V447.896H231.721V415.893Z" fill="#FF4500"/>
<path d="M271.723 415.893H256.028V447.896H271.723V415.893Z" fill="#FF4500"/>
<path d="M231.721 471.903H216.026V503.906H231.721V471.903Z" fill="#FF4500"/>
<path d="M271.723 471.903H256.028V503.906H271.723V471.903Z" fill="#FF4500"/>
<path d="M311.724 191.862H296.029V223.865H311.724V191.862Z" fill="#FF4500"/>
<path d="M423.891 280.037H311.881V295.732H423.891V280.037Z" fill="#FF4500"/>
<path d="M343.732 311.887H328.037V511.904H343.732V311.887Z" fill="#FF4500"/>
<path d="M375.739 311.887H360.044V511.904H375.739V311.887Z" fill="#FF4500"/>
<path d="M407.736 311.887H392.041V511.904H407.736V311.887Z" fill="#FF4500"/>
<path d="M511.742 31.371L471.691 63.912L471.747 55.906L456.052 55.795L455.906 76.736L439.743 89.868V23.848H424.048V102.621L407.74 115.872V71.855H392.045V128.626L368.042 148.129V239.875H383.737V167.713H432.049V183.715H496.13L496.306 511.91L512.001 511.902L511.742 31.371ZM388.144 152.017L496.065 64.332L496.104 136.015H432.05V152.017H388.144ZM447.744 168.018V151.71H496.113L496.121 168.018H447.744Z" fill="#FF4500"/>
<path d="M479.745 255.877H464.05V287.88H479.745V255.877Z" fill="#FF4500"/>
<path d="M479.745 311.887H464.05V343.89H479.745V311.887Z" fill="#FF4500"/>
<path d="M479.745 367.887H464.05V399.89H479.745V367.887Z" fill="#FF4500"/>
<path d="M479.745 423.898H464.05V455.902H479.745V423.898Z" fill="#FF4500"/>
<path d="M479.745 479.897H464.05V511.9H479.745V479.897Z" fill="#FF4500"/>
<path d="M479.745 199.867H464.05V231.871H479.745V199.867Z" fill="#FF4500"/>
<path d="M447.748 199.867H432.053V231.871H447.748V199.867Z" fill="#FF4500"/>
<path d="M415.74 199.867H400.045V231.871H415.74V199.867Z" fill="#FF4500"/>
</g>
</svg>
