<svg width="1287" height="815" viewBox="0 0 1287 815" fill="none" xmlns="http://www.w3.org/2000/svg">
<g clip-path="url(#clip0)">
<path d="M357.561 724.531L384.561 776.993L395.807 771.205L367.844 716.877" fill="#F96440"/>
<path opacity="0.2" d="M370.791 727.208L383.105 751.155L371.014 755.276L360.507 734.873L370.791 727.208Z" fill="#463E3B"/>
<path d="M398.636 772.121L381.778 780.796L353.335 725.529L358.958 722.629L384.502 772.285L390.125 769.386L363.606 717.875L369.229 714.975L398.636 772.121Z" fill="#314E5D"/>
<path d="M333.132 758.433L593.421 624.432C598.524 621.806 603.058 618.201 606.767 613.823C610.476 609.444 613.286 604.378 615.037 598.913C616.787 593.449 617.444 587.693 616.97 581.974C616.496 576.256 614.901 570.686 612.274 565.585L383.246 120.628C380.62 115.526 377.015 110.991 372.636 107.282C368.258 103.574 363.191 100.764 357.727 99.0131C352.262 97.2624 346.506 96.6053 340.788 97.0792C335.069 97.5532 329.5 99.1489 324.398 101.775L64.1084 235.741C60.4691 237.616 57.7234 240.859 56.4752 244.758C55.2269 248.656 55.5785 252.891 57.4524 256.531L312.342 751.777C314.217 755.417 317.46 758.162 321.359 759.411C325.257 760.659 329.492 760.307 333.132 758.433V758.433Z" fill="#E8F0F9"/>
<path d="M325.372 103.654L65.0828 237.608C62.8015 238.78 60.8488 240.503 59.4016 242.62C57.9544 244.738 57.0585 247.183 56.795 249.734C57.8869 248.677 59.129 247.787 60.4811 247.093L320.771 113.127C325.873 110.501 331.442 108.905 337.16 108.431C342.879 107.957 348.635 108.614 354.099 110.365C359.564 112.115 364.63 114.925 369.009 118.634C373.387 122.343 376.993 126.878 379.618 131.98L608.647 576.983C611.348 582.221 612.956 587.952 613.376 593.83C613.796 599.708 613.018 605.611 611.089 611.179C615.257 604.733 617.652 597.301 618.031 589.634C618.41 581.967 616.761 574.336 613.249 567.51L384.22 122.506C381.594 117.404 377.989 112.869 373.611 109.161C369.232 105.452 364.166 102.642 358.701 100.891C353.237 99.1406 347.481 98.4835 341.762 98.9575C336.043 99.4314 330.474 101.027 325.372 103.654V103.654Z" fill="white"/>
<path d="M75.7066 232.137L68.8275 235.659C67.0265 236.591 65.4268 237.869 64.1199 239.42C62.8129 240.97 61.8243 242.763 61.2106 244.696C60.5968 246.629 60.3699 248.664 60.5429 250.685C60.7158 252.705 61.2852 254.672 62.2184 256.472L317.049 751.719C317.977 753.522 319.25 755.124 320.796 756.435C322.343 757.746 324.133 758.74 326.063 759.359C327.994 759.978 330.027 760.211 332.048 760.044C334.068 759.877 336.036 759.314 337.839 758.386L344.718 754.865L75.7066 232.137Z" fill="#EAC4BC"/>
<path d="M596.344 627.743L335.996 761.697C331.609 763.949 326.506 764.369 321.81 762.864C317.113 761.358 313.206 758.051 310.945 753.667L56.0555 258.433C53.8028 254.045 53.3831 248.943 54.8885 244.246C56.3939 239.55 59.7014 235.642 64.085 233.382L324.375 99.4157C335.432 93.756 348.281 92.7079 360.109 96.501C371.937 100.294 381.78 108.619 387.484 119.654L616.512 564.657C622.17 575.703 623.224 588.54 619.445 600.361C615.666 612.182 607.361 622.027 596.344 627.743V627.743ZM66.9845 239.005C64.0911 240.498 61.9085 243.078 60.9159 246.18C59.9232 249.281 60.2017 252.649 61.6902 255.545L316.568 750.779C318.061 753.673 320.642 755.855 323.743 756.848C326.844 757.841 330.212 757.562 333.108 756.074L593.398 622.084C602.946 617.155 610.15 608.64 613.429 598.407C616.708 588.174 615.795 577.058 610.889 567.498L381.861 122.53C376.931 112.982 368.417 105.778 358.184 102.499C347.95 99.2199 336.835 100.133 327.274 105.039L66.9845 239.005Z" fill="#314E5D"/>
<path opacity="0.2" d="M430.824 320.391L399.387 289.212L348.803 239.028L347.688 237.925C345.62 235.874 342.823 234.729 339.911 234.74C336.999 234.751 334.21 235.917 332.158 237.983L331.054 239.098L175.171 396.237L174.068 397.411C172.018 399.479 170.872 402.277 170.883 405.189C170.894 408.101 172.061 410.889 174.127 412.942L215.695 454.181L256.147 494.246L257.321 495.35C259.389 497.4 262.187 498.546 265.099 498.535C268.011 498.524 270.799 497.357 272.852 495.291L430.941 335.863C432.966 333.79 434.09 331.001 434.068 328.103C434.046 325.205 432.88 322.434 430.824 320.391Z" fill="#463E3B"/>
<path d="M348.528 228.226L170.507 377.815C167.549 380.301 167.166 384.715 169.651 387.673L250.11 483.424C252.596 486.382 257.009 486.765 259.968 484.28L437.989 334.69C440.947 332.204 441.33 327.791 438.845 324.832L358.386 229.081C355.9 226.123 351.487 225.74 348.528 228.226Z" fill="white"/>
<g opacity="0.2">
<path opacity="0.2" d="M307.365 444.438L264.247 480.688C262.983 481.753 261.522 482.559 259.946 483.058C258.37 483.558 256.712 483.741 255.065 483.598C253.418 483.456 251.816 482.989 250.35 482.226C248.884 481.462 247.583 480.417 246.521 479.15L173.211 391.905C172.932 391.58 172.677 391.235 172.448 390.872C187.239 393.972 203.298 393.713 218.453 392.739C226.518 392.211 234.653 391.565 242.659 392.528C263.566 395.063 281.856 408.54 294.78 425.139C299.484 431.225 303.692 437.679 307.365 444.438V444.438Z" fill="#DED6D3"/>
</g>
<path d="M262.428 485.912C259.574 487.366 256.311 487.81 253.172 487.17C250.034 486.53 247.205 484.845 245.148 482.39L169.807 392.739C168.609 391.316 167.703 389.67 167.142 387.897C166.58 386.123 166.373 384.257 166.534 382.403C166.694 380.55 167.218 378.746 168.076 377.095C168.933 375.445 170.108 373.979 171.532 372.783L343.45 228.334C344.87 227.127 346.514 226.214 348.289 225.647C350.063 225.08 351.933 224.871 353.789 225.031C355.645 225.192 357.451 225.719 359.101 226.582C360.752 227.445 362.216 228.627 363.407 230.059L438.748 319.699C439.946 321.122 440.851 322.767 441.413 324.541C441.975 326.314 442.181 328.181 442.021 330.035C441.861 331.888 441.337 333.691 440.479 335.342C439.621 336.993 438.447 338.459 437.022 339.655L265.081 484.116C264.266 484.812 263.377 485.414 262.428 485.912V485.912ZM348.968 232.243C348.448 232.512 347.959 232.839 347.512 233.217L175.606 377.654C174.019 378.991 173.028 380.902 172.85 382.969C172.672 385.036 173.321 387.089 174.655 388.677L250.043 478.316C251.38 479.903 253.291 480.894 255.358 481.072C257.424 481.25 259.477 480.601 261.066 479.267L432.925 334.795C434.512 333.458 435.503 331.547 435.681 329.48C435.859 327.414 435.21 325.361 433.876 323.772L358.535 234.133C357.394 232.776 355.826 231.847 354.088 231.497C352.35 231.148 350.545 231.398 348.968 232.208V232.243Z" fill="#314E5D"/>
<path opacity="0.2" d="M290.942 130.219C289.22 126.872 286.239 124.347 282.655 123.198C279.071 122.048 275.178 122.37 271.831 124.091L261.465 129.432C258.53 130.956 256.22 133.457 254.934 136.503C253.648 139.548 253.467 142.948 254.422 146.114C254.528 148.095 255.052 150.031 255.959 151.795L519.665 664.251C520.519 665.913 521.692 667.39 523.118 668.598C524.544 669.805 526.194 670.72 527.974 671.288C529.754 671.856 531.629 672.067 533.49 671.909C535.352 671.751 537.164 671.227 538.823 670.367L549.189 665.026C552.488 662.461 554.829 658.861 555.834 654.804C556.839 650.748 556.45 646.472 554.73 642.663L290.942 130.219Z" fill="#463E3B"/>
<path d="M281.423 116.831L272.447 121.45C265.096 125.232 262.204 134.257 265.986 141.607L528.989 652.697C532.772 660.047 541.796 662.94 549.146 659.157L558.123 654.538C565.473 650.756 568.366 641.731 564.583 634.381L301.58 123.291C297.798 115.941 288.773 113.048 281.423 116.831Z" fill="#938D35"/>
<path d="M284.016 119.079L559.261 653.886C559.125 653.973 558.984 654.051 558.838 654.12L553.65 656.797L278.369 121.919L282.701 119.689C283.124 119.47 283.562 119.266 284.016 119.079Z" fill="#DAE23B"/>
<path d="M266.508 124.183L264.64 125.144L541.351 662.872L543.219 661.911L266.508 124.183Z" fill="#463E3B"/>
<path d="M273.084 123.166L271.215 124.128L547.926 661.856L549.795 660.894L273.084 123.166Z" fill="#463E3B"/>
<path d="M278.694 120.269L276.826 121.231L553.536 658.959L555.405 657.997L278.694 120.269Z" fill="#463E3B"/>
<path d="M284.321 117.382L282.453 118.344L559.163 656.072L561.032 655.11L284.321 117.382Z" fill="#463E3B"/>
<path d="M289.948 114.496L288.08 115.457L564.79 653.185L566.659 652.224L289.948 114.496Z" fill="#463E3B"/>
<path d="M559.953 658.311L549.588 663.652C545.496 665.753 540.738 666.144 536.358 664.74C531.979 663.336 528.335 660.251 526.227 656.163L262.428 143.707C260.327 139.615 259.936 134.857 261.34 130.478C262.745 126.098 265.829 122.454 269.917 120.346L280.283 115.005C284.374 112.905 289.133 112.514 293.512 113.918C297.892 115.322 301.536 118.407 303.643 122.495L567.384 634.997C569.474 639.077 569.866 643.818 568.474 648.186C567.082 652.553 564.019 656.193 559.953 658.311V658.311ZM272.805 125.969C270.214 127.308 268.259 129.618 267.366 132.394C266.473 135.169 266.715 138.186 268.039 140.784L531.78 653.275C533.12 655.873 535.437 657.833 538.221 658.724C541.005 659.615 544.03 659.366 546.63 658.029L556.995 652.688C559.593 651.348 561.553 649.031 562.444 646.247C563.336 643.462 563.086 640.438 561.75 637.838L298.02 125.382C296.68 122.785 294.363 120.825 291.579 119.933C288.795 119.042 285.771 119.292 283.171 120.628L272.805 125.969Z" fill="#314E5D"/>
<path d="M997.232 -16.3077H463.635C447.213 -16.3077 433.9 -2.99486 433.9 13.4273V764.596C433.9 781.019 447.213 794.331 463.635 794.331H997.232C1013.65 794.331 1026.97 781.019 1026.97 764.596V13.4273C1026.97 -2.99486 1013.65 -16.3077 997.232 -16.3077Z" fill="#FF4500"/>
<path d="M1026.97 491.065V745.802C1026.97 772.614 1014.25 794.343 998.571 794.343H462.296C446.613 794.343 433.9 772.614 433.9 745.802V598.465C470.056 639.059 511.213 666.446 553.427 683.456C604.397 704.023 657.023 710.021 709.38 710.902C771.972 711.97 835.645 705.537 894.575 669.51C948.609 636.465 998.688 575.739 1026.97 491.065Z" fill="#F96440"/>
<path d="M648.325 -14.265C592.459 1.75873 514.852 -13.7016 466.628 45.1814C443.737 73.1086 438.114 127.249 434.428 172.033L434.498 46.684C434.498 30.625 434.815 13.0986 440.896 0.901785C448.433 -14.2768 461.58 -15.439 473.179 -15.4272C530.16 -15.345 592.459 -25.9102 648.325 -14.265Z" fill="#F96440"/>
<path d="M996.669 -15.345H463.071C446.649 -15.345 433.336 -2.03225 433.336 14.3899V765.559C433.336 781.981 446.649 795.294 463.071 795.294H996.669C1013.09 795.294 1026.4 781.981 1026.4 765.559V14.3899C1026.4 -2.03225 1013.09 -15.345 996.669 -15.345Z" stroke="#314E5D" stroke-width="8" stroke-miterlimit="10"/>
<path d="M952.871 37.1167H508.595C498.313 37.1167 489.977 45.4523 489.977 55.7348V716.49C489.977 726.772 498.313 735.108 508.595 735.108H952.871C963.153 735.108 971.489 726.772 971.489 716.49V55.7348C971.489 45.4523 963.153 37.1167 952.871 37.1167Z" fill="white"/>
<path d="M970.902 56.9204V192.436H489.402V56.9204C489.402 46.5196 496.293 38.138 504.803 38.138H955.559C964.011 38.091 970.902 46.5196 970.902 56.9204Z" fill="#FF4500"/>
<path d="M952.295 35.9545H508.02C497.737 35.9545 489.402 44.2901 489.402 54.5726V720.375C489.402 730.658 497.737 738.993 508.02 738.993H952.295C962.578 738.993 970.914 730.658 970.914 720.375V54.5726C970.914 44.2901 962.578 35.9545 952.295 35.9545Z" stroke="#314E5D" stroke-width="8" stroke-miterlimit="10"/>
<path d="M887.026 128.376H572.491V155.564H887.026V128.376Z" fill="white"/>
<path d="M562.689 330.933H716.576V324.465H562.689V330.933Z" fill="#AFE6FF"/>
<path d="M562.7 345.161L897.615 345.161V338.692L562.7 338.692V345.161Z" fill="#AFE6FF"/>
<path d="M562.689 359.388H716.576V352.92H562.689V359.388Z" fill="#AFE6FF"/>
<path d="M562.7 373.604L897.615 373.604V367.136L562.7 367.136V373.604Z" fill="#AFE6FF"/>
<path d="M562.689 387.844H716.576V381.376H562.689V387.844Z" fill="#AFE6FF"/>
<path d="M562.7 402.06L897.615 402.06V395.592L562.7 395.592V402.06Z" fill="#AFE6FF"/>
<path d="M832.088 80.645L947.612 80.645V67.0512L832.088 67.0512V80.645Z" fill="#EEA248"/>
<path d="M700.634 80.645L816.158 80.645V67.0512L700.634 67.0512V80.645Z" fill="#EEA248"/>
<path d="M525.805 86.9489C533.04 86.9489 538.905 81.0835 538.905 73.8481C538.905 66.6128 533.04 60.7474 525.805 60.7474C518.569 60.7474 512.704 66.6128 512.704 73.8481C512.704 81.0835 518.569 86.9489 525.805 86.9489Z" fill="#EEA248"/>
<path d="M608.8 287.686C624.885 287.686 637.924 274.647 637.924 258.562C637.924 242.477 624.885 229.437 608.8 229.437C592.714 229.437 579.675 242.477 579.675 258.562C579.675 274.647 592.714 287.686 608.8 287.686Z" fill="#EA4583"/>
<path d="M863.138 232.349H842.782C833.122 232.349 825.291 240.18 825.291 249.84V270.195C825.291 279.855 833.122 287.686 842.782 287.686H863.138C872.798 287.686 880.629 279.855 880.629 270.195V249.84C880.629 240.18 872.798 232.349 863.138 232.349Z" fill="#958FEE"/>
<path d="M726.777 236.504C727.183 235.77 727.778 235.158 728.501 234.732C729.223 234.306 730.047 234.082 730.886 234.082C731.724 234.082 732.548 234.306 733.27 234.732C733.993 235.158 734.588 235.77 734.994 236.504L747.719 258.538L760.444 280.572C760.858 281.289 761.075 282.101 761.074 282.928C761.072 283.755 760.853 284.567 760.437 285.281C760.021 285.996 759.424 286.588 758.706 286.998C757.988 287.408 757.174 287.621 756.347 287.616H705.435C704.608 287.621 703.795 287.408 703.077 286.998C702.359 286.588 701.762 285.996 701.346 285.281C700.93 284.567 700.711 283.755 700.709 282.928C700.708 282.101 700.925 281.289 701.338 280.572L714.064 258.538L726.777 236.504Z" fill="#EEA248"/>
<path d="M1173.3 188.823L1091.98 159.411C1078.89 154.676 1064.44 161.45 1059.71 174.54L863.915 715.847C859.18 728.938 865.954 743.388 879.045 748.123L960.359 777.535C973.45 782.269 987.9 775.496 992.635 762.405L1188.43 221.099C1193.16 208.008 1186.39 193.558 1173.3 188.823Z" fill="#E8F0F9"/>
<path d="M1178.74 187.74L1159.71 180.955C1164.55 182.683 1168.51 186.261 1170.71 190.904C1172.91 195.546 1173.18 200.873 1171.45 205.713L974.095 759.138C972.367 763.976 968.789 767.931 964.146 770.132C959.504 772.333 954.177 772.601 949.337 770.877L968.366 777.662C973.206 779.386 978.533 779.119 983.175 776.917C987.818 774.716 991.396 770.762 993.124 765.923L1190.48 212.533C1191.34 210.134 1191.72 207.59 1191.59 205.045C1191.47 202.5 1190.84 200.005 1189.75 197.703C1188.66 195.4 1187.13 193.335 1185.24 191.625C1183.35 189.916 1181.14 188.596 1178.74 187.74Z" fill="#BCD9EA"/>
<path opacity="0.2" d="M1178.74 187.74L1086.27 154.765C1081.43 153.041 1076.11 153.309 1071.46 155.51C1066.82 157.711 1063.24 161.666 1061.52 166.504L1053.98 187.635C1055.71 182.796 1059.29 178.841 1063.93 176.64C1068.57 174.439 1073.9 174.171 1078.74 175.896L1171.2 208.87C1176.04 210.598 1180 214.177 1182.2 218.819C1184.4 223.462 1184.67 228.788 1182.94 233.628L1190.48 212.498C1192.2 207.658 1191.94 202.331 1189.74 197.689C1187.53 193.047 1183.58 189.468 1178.74 187.74V187.74Z" fill="#463E3B"/>
<path d="M1157.94 230.397L1155.68 236.744L1176.82 244.284L1179.08 237.937L1157.94 230.397Z" fill="#314E5D"/>
<path d="M1151.9 247.316L1149.64 253.662L1170.78 261.203L1173.04 254.856L1151.9 247.316Z" fill="#314E5D"/>
<path d="M1145.86 264.23L1143.6 270.577L1164.74 278.117L1167 271.771L1145.86 264.23Z" fill="#314E5D"/>
<path d="M1122.58 276.788L1120.28 283.121L1162.48 298.384L1164.77 292.05L1122.58 276.788Z" fill="#314E5D"/>
<path d="M1137.31 294.883L1135.05 301.23L1156.19 308.77L1158.45 302.423L1137.31 294.883Z" fill="#314E5D"/>
<path d="M1131.29 311.802L1129.02 318.148L1150.16 325.688L1152.43 319.342L1131.29 311.802Z" fill="#314E5D"/>
<path d="M1125.26 328.72L1123 335.067L1144.14 342.607L1146.4 336.26L1125.26 328.72Z" fill="#314E5D"/>
<path d="M1101.75 341.496L1099.46 347.83L1141.66 363.093L1143.95 356.759L1101.75 341.496Z" fill="#314E5D"/>
<path d="M1116.7 359.369L1114.43 365.716L1135.58 373.256L1137.84 366.909L1116.7 359.369Z" fill="#314E5D"/>
<path d="M1110.67 376.288L1108.41 382.634L1129.55 390.174L1131.81 383.828L1110.67 376.288Z" fill="#314E5D"/>
<path d="M1104.63 393.206L1102.37 399.553L1123.51 407.093L1125.77 400.746L1104.63 393.206Z" fill="#314E5D"/>
<path d="M1077.46 402.573L1075.2 408.919L1117.48 424L1119.74 417.653L1077.46 402.573Z" fill="#314E5D"/>
<path d="M1091.86 422.353L1089.6 428.7L1110.74 436.24L1113 429.893L1091.86 422.353Z" fill="#314E5D"/>
<path d="M1085.82 439.272L1083.56 445.618L1104.7 453.159L1106.96 446.812L1085.82 439.272Z" fill="#314E5D"/>
<path d="M1079.8 456.179L1077.53 462.525L1098.67 470.065L1100.94 463.719L1079.8 456.179Z" fill="#314E5D"/>
<path d="M1055.87 469.413L1053.58 475.747L1095.78 491.009L1098.07 484.675L1055.87 469.413Z" fill="#314E5D"/>
<path d="M1069.12 486.088L1066.86 492.434L1088 499.974L1090.26 493.628L1069.12 486.088Z" fill="#314E5D"/>
<path d="M1063.1 502.995L1060.83 509.342L1081.97 516.882L1084.24 510.535L1063.1 502.995Z" fill="#314E5D"/>
<path d="M1057.06 519.914L1054.8 526.26L1075.94 533.8L1078.2 527.454L1057.06 519.914Z" fill="#314E5D"/>
<path d="M1032.94 533.352L1030.65 539.686L1072.84 554.948L1075.13 548.614L1032.94 533.352Z" fill="#314E5D"/>
<path d="M1048.51 550.573L1046.24 556.92L1067.38 564.46L1069.65 558.114L1048.51 550.573Z" fill="#314E5D"/>
<path d="M1042.48 567.492L1040.21 573.839L1061.36 581.379L1063.62 575.032L1042.48 567.492Z" fill="#314E5D"/>
<path d="M1036.44 584.4L1034.18 590.746L1055.32 598.286L1057.58 591.94L1036.44 584.4Z" fill="#314E5D"/>
<path d="M1012.1 598.06L1009.81 604.394L1052.01 619.657L1054.3 613.323L1012.1 598.06Z" fill="#314E5D"/>
<path d="M1025.78 614.309L1023.52 620.655L1044.66 628.195L1046.92 621.849L1025.78 614.309Z" fill="#314E5D"/>
<path d="M1019.74 631.227L1017.48 637.574L1038.62 645.114L1040.88 638.767L1019.74 631.227Z" fill="#314E5D"/>
<path d="M1013.71 648.146L1011.45 654.492L1032.59 662.033L1034.85 655.686L1013.71 648.146Z" fill="#314E5D"/>
<path d="M986.543 657.512L984.279 663.859L1026.56 678.94L1028.82 672.593L986.543 657.512Z" fill="#314E5D"/>
<path d="M1003.05 678.048L1000.79 684.394L1021.93 691.934L1024.19 685.588L1003.05 678.048Z" fill="#314E5D"/>
<path d="M997.015 694.962L994.751 701.309L1015.89 708.849L1018.16 702.502L997.015 694.962Z" fill="#314E5D"/>
<path d="M990.976 711.869L988.712 718.216L1009.85 725.756L1012.12 719.409L990.976 711.869Z" fill="#314E5D"/>
<path d="M963.805 721.247L961.542 727.594L1003.82 742.675L1006.09 736.328L963.805 721.247Z" fill="#314E5D"/>
<path d="M1102.19 162.866L893.3 748.533L897.524 750.039L1106.42 164.373L1102.19 162.866Z" fill="white"/>
<path d="M868.972 739.827L862.633 737.561L1068.49 160.353C1069.09 158.671 1070.33 157.295 1071.95 156.529C1073.56 155.763 1075.41 155.669 1077.09 156.268V156.268L868.972 739.827Z" fill="white"/>
<path d="M1077.12 156.318L868.989 739.862L875.336 742.125L1083.47 158.582L1077.12 156.318Z" fill="white"/>
<path d="M1083.46 158.571L875.323 742.115L881.67 744.378L1089.8 160.835L1083.46 158.571Z" fill="white"/>
<path d="M942.518 737.495C944.391 732.244 941.652 726.468 936.401 724.595C931.149 722.722 925.373 725.461 923.5 730.712C921.627 735.964 924.366 741.74 929.618 743.613C934.869 745.486 940.645 742.747 942.518 737.495Z" fill="white"/>
<path d="M928.465 746.753C925.958 745.862 923.77 744.248 922.179 742.114C920.588 739.98 919.666 737.423 919.527 734.766C919.389 732.108 920.041 729.469 921.402 727.182C922.762 724.894 924.77 723.062 927.172 721.915C929.573 720.768 932.261 720.359 934.895 720.739C937.529 721.118 939.992 722.27 941.972 724.049C943.951 725.827 945.36 728.152 946.019 730.731C946.678 733.309 946.558 736.025 945.675 738.536C944.482 741.907 941.998 744.666 938.771 746.207C935.544 747.748 931.837 747.945 928.465 746.753V746.753ZM935.25 727.736C933.995 727.288 932.635 727.223 931.342 727.548C930.05 727.873 928.883 728.575 927.989 729.564C927.095 730.552 926.514 731.784 926.32 733.103C926.127 734.422 926.328 735.768 926.9 736.972C927.472 738.176 928.388 739.184 929.532 739.867C930.676 740.551 931.998 740.88 933.329 740.812C934.66 740.744 935.941 740.283 937.011 739.487C938.08 738.691 938.889 737.596 939.336 736.34C939.934 734.658 939.84 732.806 939.074 731.193C938.308 729.579 936.933 728.336 935.25 727.736V727.736Z" fill="#314E5D"/>
<path d="M1131.94 199.678C1133.82 194.426 1131.08 188.65 1125.83 186.777C1120.57 184.904 1114.8 187.643 1112.93 192.894C1111.05 198.146 1113.79 203.922 1119.04 205.795C1124.29 207.668 1130.07 204.929 1131.94 199.678Z" fill="white"/>
<path d="M1117.87 208.953C1115.37 208.062 1113.18 206.447 1111.59 204.314C1110 202.18 1109.07 199.623 1108.94 196.965C1108.8 194.308 1109.45 191.669 1110.81 189.381C1112.17 187.094 1114.18 185.261 1116.58 184.115C1118.98 182.968 1121.67 182.559 1124.3 182.938C1126.94 183.318 1129.4 184.47 1131.38 186.248C1133.36 188.027 1134.77 190.352 1135.43 192.931C1136.09 195.509 1135.97 198.225 1135.08 200.735C1133.89 204.107 1131.41 206.866 1128.18 208.407C1124.95 209.948 1121.25 210.144 1117.87 208.953V208.953ZM1124.66 189.924C1123.4 189.476 1122.04 189.411 1120.75 189.736C1119.46 190.061 1118.29 190.763 1117.4 191.752C1116.5 192.74 1115.92 193.972 1115.73 195.291C1115.54 196.61 1115.74 197.956 1116.31 199.16C1116.88 200.364 1117.8 201.372 1118.94 202.055C1120.09 202.739 1121.41 203.068 1122.74 203C1124.07 202.932 1125.35 202.471 1126.42 201.675C1127.49 200.879 1128.3 199.784 1128.74 198.528C1129.34 196.846 1129.25 194.994 1128.48 193.38C1127.72 191.767 1126.34 190.524 1124.66 189.924V189.924Z" fill="#314E5D"/>
<path d="M970.972 783.355L872.364 748.138C867.5 746.395 863.525 742.793 861.311 738.124C859.097 733.454 858.826 728.098 860.555 723.228L1060.12 163.71C1061.86 158.846 1065.46 154.871 1070.13 152.657C1074.8 150.444 1080.16 150.172 1085.03 151.901L1183.64 187.118C1188.5 188.862 1192.48 192.463 1194.69 197.132C1196.9 201.802 1197.18 207.159 1195.45 212.028L995.882 771.546C994.139 776.41 990.538 780.385 985.868 782.599C981.199 784.813 975.842 785.085 970.972 783.355ZM1082.76 158.299C1079.57 157.165 1076.07 157.343 1073.01 158.794C1069.95 160.244 1067.6 162.848 1066.46 166.035L866.894 725.552C865.772 728.738 865.957 732.238 867.409 735.287C868.861 738.336 871.462 740.686 874.642 741.823L973.25 777.04C976.438 778.173 979.946 777.995 983.003 776.545C986.06 775.094 988.416 772.49 989.555 769.304L1189.12 209.786C1190.25 206.598 1190.07 203.09 1188.62 200.033C1187.17 196.976 1184.57 194.619 1181.38 193.481L1082.76 158.299Z" fill="#314E5D"/>
<path opacity="0.1" d="M1059.8 365.105C1060.28 356.199 1061.97 347.399 1064.83 338.951C1066.98 332.024 1070.4 325.556 1074.91 319.875C1079.53 314.082 1085.94 309.986 1093.14 308.23L1093.61 310.425C1086.9 312.079 1080.93 315.91 1076.64 321.319C1072.3 326.788 1069.02 333.013 1066.95 339.678C1064.16 347.934 1062.51 356.532 1062.04 365.234L1059.8 365.105Z" fill="black"/>
<path opacity="0.1" d="M988.71 389.652C987.14 389.092 985.617 388.409 984.155 387.609L985.235 385.637C1000.19 393.854 1020.85 388.09 1029.46 373.381C1031.96 369.108 1033.73 363.884 1035.03 356.947C1037.23 345.208 1037.05 334.713 1034.49 325.697C1031.44 314.956 1024.8 306.117 1016.26 301.444L1017.34 299.472C1026.4 304.426 1033.45 313.759 1036.65 325.087C1039.31 334.478 1039.5 345.29 1037.24 357.357C1035.89 364.565 1034.03 370.024 1031.37 374.532C1023.05 388.724 1004.09 395.075 988.71 389.652Z" fill="black"/>
<path opacity="0.1" d="M992.854 364.107L993.065 361.877C1002.13 362.757 1011.32 355.702 1013.55 346.158C1015.59 337.378 1011.89 327.106 1004.33 320.579L1005.8 318.877C1014.02 325.92 1017.98 337.108 1015.74 346.675C1013.27 357.264 1003.01 365.093 992.854 364.107Z" fill="black"/>
<path opacity="0.1" d="M907.664 629.985C906.059 629.415 904.542 628.625 903.156 627.637L904.459 625.806C908.708 628.846 914.144 629.633 920.142 628.095C933.231 624.737 947.212 611.061 955.77 593.253C959.632 585.212 962.919 575.739 966.124 563.436C971.5 542.752 973.954 524.697 973.414 509.883C972.78 492.274 967.767 478.821 959.668 473.046L960.971 471.214C969.646 477.401 974.987 491.464 975.656 509.801C976.196 524.874 973.719 543.104 968.296 564C965.056 576.443 961.722 586.046 957.801 594.228C948.962 612.599 934.429 626.78 920.706 630.302C916.425 631.51 911.88 631.399 907.664 629.985Z" fill="black"/>
<path opacity="0.1" d="M918.804 585.693L918.628 583.451C928.266 582.677 940.533 567.651 945.405 550.582C949.936 534.758 948.492 517.865 941.812 508.545L943.632 507.23C950.805 517.231 952.342 534.488 947.565 551.192C942.364 569.364 929.463 584.813 918.804 585.693Z" fill="black"/>
<path opacity="0.1" d="M1073.29 522.22C1064.23 517.267 1057.18 507.934 1053.98 496.606C1051.33 487.215 1051.13 476.403 1053.39 464.335C1054.74 457.128 1056.6 451.669 1059.26 447.161C1068.45 431.454 1090.52 425.326 1106.5 434.072L1105.42 436.044C1090.48 427.827 1069.8 433.591 1061.2 448.3C1058.7 452.573 1056.93 457.797 1055.62 464.734C1053.43 476.473 1053.6 486.968 1056.16 495.984C1059.21 506.725 1065.86 515.564 1074.39 520.237L1073.29 522.22Z" fill="black"/>
<path opacity="0.1" d="M1084.83 502.757C1076.61 495.714 1072.66 484.526 1074.89 474.959C1077.36 464.394 1087.62 456.529 1097.78 457.515L1097.57 459.745C1088.5 458.865 1079.31 465.92 1077.08 475.464C1075.04 484.245 1078.74 494.516 1086.3 501.043L1084.83 502.757Z" fill="black"/>
<path opacity="0.1" d="M992.302 743.572C979.495 736.528 969.54 723.369 964.997 707.357C961.241 694.103 960.959 678.702 964.175 661.575C966.089 651.35 968.718 643.626 972.393 637.251C985.376 615.076 1016.53 606.436 1039.08 618.774L1038 620.746C1016.48 609.007 986.726 617.224 974.33 638.355C970.737 644.494 968.19 651.984 966.324 661.95C963.177 678.725 963.436 693.786 967.098 706.699C971.477 722.136 981.033 734.873 993.312 741.553L992.302 743.572Z" fill="black"/>
<path opacity="0.1" d="M1008.81 715.891C997.291 705.948 991.656 690.218 994.791 676.741C998.312 661.856 1012.67 650.916 1026.91 652.242L1026.7 654.472C1013.54 653.193 1000.21 663.418 996.986 677.246C994.028 689.924 999.334 704.762 1010.27 714.177L1008.81 715.891Z" fill="black"/>
<path d="M1084.98 171.024L885.14 731.315L891.486 733.579L1091.33 173.287L1084.98 171.024Z" fill="#314E5D"/>
<path opacity="0.1" d="M994.896 562.309C992.302 555.172 989.027 546.297 989.297 537.305C989.473 530.262 991.645 523.512 993.863 516.985C995.037 513.299 996.34 509.495 997.209 505.704C999.48 495.032 998.866 483.948 995.431 473.592C991.996 463.237 985.863 453.984 977.664 446.785L979.119 445.083C987.625 452.552 993.986 462.152 997.55 472.895C1001.11 483.639 1001.75 495.137 999.392 506.208C998.5 510.106 997.232 513.968 995.988 517.701C993.875 524.075 991.703 530.614 991.539 537.376C991.328 545.933 994.474 554.597 996.998 561.558L994.896 562.309Z" fill="black"/>
<path opacity="0.1" d="M1079.49 285.033C1076.89 277.896 1073.62 269.021 1073.89 260.029C1074.06 252.986 1076.24 246.236 1078.45 239.709C1079.63 236.023 1080.93 232.219 1081.8 228.428C1084.07 217.756 1083.46 206.672 1080.02 196.316C1076.59 185.961 1070.45 176.708 1062.25 169.51L1063.71 167.807C1072.22 175.276 1078.58 184.876 1082.14 195.619C1085.7 206.363 1086.34 217.862 1083.98 228.932C1083.09 232.83 1081.82 236.692 1080.58 240.425C1078.47 246.799 1076.29 253.338 1076.13 260.1C1075.92 268.657 1079.07 277.321 1081.59 284.282L1079.49 285.033Z" fill="black"/>
<path opacity="0.1" d="M1142.47 328.949C1139.87 321.812 1136.6 312.937 1136.87 303.945C1137.04 296.901 1139.22 290.152 1141.43 283.625C1142.61 279.939 1143.91 276.135 1144.78 272.343C1147.05 261.672 1146.44 250.588 1143 240.232C1139.57 229.876 1133.43 220.623 1125.23 213.425L1126.69 211.723C1135.2 219.191 1141.56 228.791 1145.12 239.535C1148.68 250.278 1149.32 261.777 1146.96 272.848C1146.07 276.746 1144.8 280.608 1143.56 284.341C1141.45 290.715 1139.27 297.254 1139.11 304.015C1138.9 312.573 1142.05 321.237 1144.57 328.198L1142.47 328.949Z" fill="black"/>
<path opacity="0.1" d="M908.192 757.189L906.302 756.015C910.563 749.312 910.105 740.754 909.659 732.537C909.542 730.389 909.424 728.241 909.389 726.128C909.421 718.901 909.943 711.684 910.951 704.528C912.606 690.77 914.179 677.763 909.154 665.648C905.527 656.902 898.589 649.671 892.415 643.59L893.988 641.994C900.338 648.227 907.441 655.658 911.232 664.791C916.491 677.457 914.754 691.357 913.193 704.798C912.178 711.844 911.641 718.95 911.584 726.069C911.584 728.147 911.737 730.26 911.843 732.384C912.359 740.989 912.841 749.876 908.192 757.189Z" fill="black"/>
</g>
<defs>
<clipPath id="clip0">
<rect width="1286.04" height="814.84" fill="white"/>
</clipPath>
</defs>
</svg>
