<svg width="1287" height="815" viewBox="0 0 1287 815" fill="none" xmlns="http://www.w3.org/2000/svg">
<g clip-path="url(#clip0)">
<path d="M1218.18 521.16C1172.73 638.84 1087.28 741.94 968.59 787.25C953.153 793.134 937.39 798.125 921.38 802.2C836.7 823.79 744.06 816.28 666 776.93C632.87 760.22 602.66 738.14 569.41 721.67C536.16 705.2 498.19 694.43 462 702.56C430.84 709.56 404.55 729.62 378.08 747.49C315.68 789.62 240.65 822.96 166.76 808.49C132.76 801.84 99.28 783.42 83.49 752.63C48.59 684.56 114.41 603.63 101.08 528.35C92.55 480.17 53.59 444.09 29.37 401.57C-12.07 328.84 -7.15998 232.23 41.43 164.07C90.02 95.91 179.74 59.78 262 75.24C362.31 94.09 438.15 179 535.69 209C596.69 227.77 662.92 222.17 721.18 197.45C815.31 157.5 944.63 96.23 1050.56 106.21C1106.89 111.52 1162.14 136.52 1199.32 179.21C1246.32 233.1 1260.41 309.61 1252.57 380.67C1247.19 428.783 1235.63 476.002 1218.18 521.16Z" fill="url(#paint0_linear)"/>
<path d="M1248.42 614.24C1246.33 614.238 1244.25 613.986 1242.22 613.49C1235.8 611.912 1230.23 607.944 1226.64 602.396C1223.05 596.849 1221.71 590.139 1222.9 583.638C1224.08 577.136 1227.71 571.334 1233.03 567.414C1238.35 563.495 1244.97 561.754 1251.53 562.548C1258.09 563.341 1264.1 566.61 1268.33 571.685C1272.57 576.76 1274.7 583.26 1274.31 589.857C1273.91 596.454 1271.01 602.651 1266.2 607.182C1261.39 611.714 1255.03 614.238 1248.42 614.24ZM1248.35 574.06C1244.91 574.071 1241.59 575.341 1239.02 577.632C1236.45 579.922 1234.81 583.074 1234.4 586.493C1234 589.911 1234.86 593.36 1236.82 596.187C1238.78 599.015 1241.72 601.026 1245.06 601.84C1246.86 602.276 1248.72 602.354 1250.55 602.069C1252.38 601.784 1254.13 601.142 1255.71 600.179C1257.29 599.217 1258.66 597.953 1259.75 596.459C1260.84 594.966 1261.63 593.272 1262.06 591.475C1262.5 589.678 1262.58 587.812 1262.29 585.985C1262.01 584.158 1261.37 582.405 1260.4 580.826C1259.44 579.247 1258.18 577.873 1256.68 576.782C1255.19 575.692 1253.5 574.906 1251.7 574.47C1250.6 574.197 1249.48 574.056 1248.35 574.05V574.06Z" fill="#E7F6FF"/>
<path d="M1224.75 641.747C1226.22 635.666 1222.49 629.54 1216.41 628.066C1210.32 626.591 1204.2 630.326 1202.72 636.407C1201.25 642.488 1204.98 648.613 1211.07 650.088C1217.15 651.562 1223.27 647.828 1224.75 641.747Z" fill="#E7F6FF"/>
<path d="M55.19 611.77C48.3216 611.62 41.7895 608.767 37.0118 603.83C32.2341 598.893 29.5966 592.271 29.6716 585.401C29.7467 578.531 32.5283 571.969 37.4127 567.137C42.2971 562.306 48.8899 559.596 55.76 559.596C62.6302 559.596 69.223 562.306 74.1074 567.137C78.9918 571.969 81.7734 578.531 81.8485 585.401C81.9235 592.271 79.2859 598.893 74.5083 603.83C69.7306 608.767 63.1985 611.62 56.33 611.77H55.19ZM55.19 571.6H54.6C50.8904 571.68 47.3622 573.221 44.7815 575.887C42.2007 578.553 40.7757 582.129 40.8159 585.839C40.856 589.549 42.3581 593.094 44.996 595.704C47.6338 598.313 51.1946 599.777 54.905 599.777C58.6155 599.777 62.1762 598.313 64.8141 595.704C67.452 593.094 68.9541 589.549 68.9942 585.839C69.0344 582.129 67.6094 578.553 65.0286 575.887C62.4479 573.221 58.9197 571.68 55.21 571.6H55.19Z" fill="#E7F6FF"/>
<path d="M36.5891 655.556C42.8407 655.286 47.69 650 47.4203 643.748C47.1506 637.497 41.8641 632.647 35.6126 632.917C29.361 633.187 24.5117 638.473 24.7814 644.725C25.051 650.976 30.3376 655.826 36.5891 655.556Z" fill="#E7F6FF"/>
<path d="M709.08 190C702.852 190.02 696.823 187.81 692.084 183.769C687.344 179.729 684.208 174.126 683.242 167.973C682.276 161.821 683.545 155.526 686.818 150.227C690.091 144.929 695.153 140.978 701.088 139.089C707.022 137.199 713.437 137.497 719.171 139.927C724.905 142.358 729.579 146.761 732.348 152.339C735.117 157.918 735.797 164.303 734.266 170.34C732.735 176.377 729.093 181.666 724 185.25C719.631 188.325 714.423 189.983 709.08 190V190ZM709 149.8C705.36 149.796 701.859 151.198 699.227 153.712C696.594 156.226 695.034 159.659 694.87 163.296C694.707 166.932 695.953 170.491 698.35 173.231C700.746 175.972 704.107 177.681 707.733 178.004C711.358 178.327 714.969 177.238 717.812 174.965C720.654 172.691 722.51 169.408 722.992 165.8C723.474 162.192 722.545 158.538 720.398 155.598C718.252 152.658 715.053 150.66 711.47 150.02C710.655 149.875 709.828 149.801 709 149.8V149.8Z" fill="#E7F6FF"/>
<path d="M655.891 188.539C661.015 184.946 662.255 177.88 658.663 172.757C655.07 167.634 648.004 166.393 642.881 169.986C637.758 173.578 636.517 180.644 640.11 185.767C643.702 190.89 650.768 192.131 655.891 188.539Z" fill="#E7F6FF"/>
<path d="M1286 324.36C1286 313.364 1281.63 302.819 1273.86 295.043C1266.08 287.268 1255.54 282.9 1244.54 282.9C1243.62 282.9 1242.71 282.9 1241.81 282.99C1241.87 282.09 1241.9 281.18 1241.9 280.26C1241.9 274.367 1240.64 268.543 1238.21 263.174C1235.78 257.806 1232.24 253.017 1227.81 249.127C1223.38 245.237 1218.18 242.335 1212.54 240.614C1206.91 238.894 1200.97 238.395 1195.13 239.15C1189.28 239.905 1183.67 241.898 1178.65 244.994C1173.64 248.091 1169.34 252.22 1166.05 257.108C1162.76 261.995 1160.55 267.528 1159.56 273.338C1158.58 279.148 1158.84 285.101 1160.34 290.8C1155.33 287.165 1149.56 284.698 1143.47 283.582C1137.38 282.466 1131.12 282.728 1125.14 284.349C1119.17 285.971 1113.63 288.91 1108.94 292.951C1104.25 296.992 1100.52 302.033 1098.03 307.703C1095.55 313.373 1094.36 319.529 1094.56 325.717C1094.76 331.906 1096.35 337.971 1099.2 343.466C1102.06 348.962 1106.1 353.748 1111.05 357.475C1115.99 361.201 1121.71 363.772 1127.78 365C1130.26 371.568 1134.36 377.399 1139.71 381.948C1145.05 386.497 1151.47 389.614 1158.35 391.007C1165.22 392.4 1172.35 392.024 1179.04 389.913C1185.73 387.803 1191.78 384.027 1196.62 378.94C1201.57 382.676 1207.29 385.253 1213.37 386.484C1219.45 387.715 1225.72 387.566 1231.73 386.05C1237.75 384.534 1243.34 381.689 1248.11 377.724C1252.88 373.759 1256.69 368.775 1259.28 363.14C1267.14 360.148 1273.91 354.837 1278.68 347.911C1283.45 340.985 1286 332.771 1286 324.36V324.36Z" fill="white"/>
<path d="M191.45 224.66C191.45 213.666 187.083 203.122 179.31 195.347C171.537 187.572 160.994 183.203 150 183.2C149.08 183.2 148.17 183.2 147.27 183.29C147.33 182.39 147.36 181.48 147.36 180.56C147.359 174.667 146.102 168.843 143.672 163.474C141.243 158.106 137.697 153.317 133.271 149.427C128.845 145.537 123.64 142.635 118.004 140.914C112.368 139.194 106.43 138.695 100.586 139.45C94.7423 140.205 89.1264 142.197 84.113 145.294C79.0995 148.391 74.8038 152.52 71.5121 157.408C68.2203 162.295 66.0083 167.828 65.0233 173.638C64.0383 179.448 64.3031 185.401 65.8 191.1C60.7892 187.466 55.0283 185 48.9401 183.884C42.8519 182.767 36.5909 183.027 30.6165 184.646C24.6422 186.265 19.1061 189.201 14.4146 193.239C9.72308 197.276 5.99518 202.313 3.50446 207.98C1.01375 213.647 -0.176575 219.799 0.0208526 225.986C0.21828 232.172 1.79845 238.236 4.64539 243.732C7.49233 249.229 11.5338 254.018 16.4732 257.748C21.4126 261.478 27.1246 264.055 33.19 265.29C35.6699 271.851 39.7739 277.676 45.1179 282.219C50.4619 286.763 56.8712 289.876 63.7461 291.268C70.6209 292.659 77.7364 292.284 84.4267 290.177C91.1171 288.07 97.1634 284.3 102 279.22C106.949 282.956 112.673 285.533 118.75 286.764C124.827 287.995 131.103 287.846 137.115 286.33C143.127 284.814 148.723 281.969 153.49 278.004C158.257 274.039 162.074 269.055 164.66 263.42C172.531 260.441 179.309 255.137 184.094 248.214C188.88 241.291 191.445 233.076 191.45 224.66Z" fill="white"/>
<path d="M954.18 814.63H357.68V801.63H954.18C955.904 801.63 957.557 802.315 958.776 803.534C959.995 804.753 960.68 806.406 960.68 808.13C960.68 809.854 959.995 811.507 958.776 812.726C957.557 813.945 955.904 814.63 954.18 814.63Z" fill="#426572"/>
<path d="M331 814.63H294.53C292.806 814.63 291.153 813.945 289.934 812.726C288.715 811.507 288.03 809.854 288.03 808.13C288.03 806.406 288.715 804.753 289.934 803.534C291.153 802.315 292.806 801.63 294.53 801.63H331C332.724 801.63 334.377 802.315 335.596 803.534C336.815 804.753 337.5 806.406 337.5 808.13C337.5 809.854 336.815 811.507 335.596 812.726C334.377 813.945 332.724 814.63 331 814.63Z" fill="#426572"/>
<path d="M270.86 814.63H259.24C257.516 814.63 255.863 813.945 254.644 812.726C253.425 811.507 252.74 809.854 252.74 808.13C252.74 806.406 253.425 804.753 254.644 803.534C255.863 802.315 257.516 801.63 259.24 801.63H270.86C272.584 801.63 274.237 802.315 275.456 803.534C276.675 804.753 277.36 806.406 277.36 808.13C277.36 809.854 276.675 811.507 275.456 812.726C274.237 813.945 272.584 814.63 270.86 814.63Z" fill="#426572"/>
<path d="M1163.34 814.63H980V801.63H1163.34C1165.06 801.63 1166.72 802.315 1167.94 803.534C1169.16 804.753 1169.84 806.406 1169.84 808.13C1169.84 809.854 1169.16 811.507 1167.94 812.726C1166.72 813.945 1165.06 814.63 1163.34 814.63Z" fill="#426572"/>
<path d="M226 814.63H42.65V801.63H226C227.724 801.63 229.377 802.315 230.596 803.534C231.815 804.753 232.5 806.406 232.5 808.13C232.5 809.854 231.815 811.507 230.596 812.726C229.377 813.945 227.724 814.63 226 814.63Z" fill="#426572"/>
<path d="M991.86 123.53V809.84H258.5V123.53C258.534 110.894 263.568 98.7854 272.502 89.8495C281.436 80.9136 293.544 75.8769 306.18 75.84H944.18C956.816 75.8769 968.924 80.9136 977.858 89.8495C986.792 98.7854 991.826 110.894 991.86 123.53V123.53Z" fill="white"/>
<path d="M944.1 189.01H298.26V809.84H944.1V189.01Z" fill="white"/>
<path opacity="0.4" d="M987.86 109.93V119.6C981.97 106.38 963.68 96.68 942.18 96.68H304.18C277.95 96.68 256.5 111.12 256.5 128.78V571.84H254.5V109.93C254.5 92.28 275.95 77.83 302.18 77.83H940.18C966.41 77.84 987.86 92.28 987.86 109.93Z" fill="#C1CEDE"/>
<path d="M993.86 814.84H248.5V122.53C248.516 108.297 254.176 94.6516 264.239 84.5865C274.303 74.5214 287.947 68.8585 302.18 68.84H940.18C954.413 68.8585 968.057 74.5214 978.121 84.5865C988.184 94.6516 993.844 108.297 993.86 122.53V361.84H981.86V122.53C981.849 111.478 977.455 100.882 969.641 93.0659C961.827 85.2501 951.232 80.8532 940.18 80.84H302.18C291.128 80.8532 280.533 85.2501 272.719 93.0659C264.905 100.882 260.511 111.478 260.5 122.53V802.84H981.86V501.84H993.86V814.84Z" fill="#426572"/>
<path d="M307.85 244.73H941.46V202.55L940.45 186.73H373.92H300.86L299.85 202.55V244.73H307.85Z" fill="#E2F2FF"/>
<path d="M905.45 209.98H328.96C325.37 209.98 322.46 212.89 322.46 216.48V219.48C322.46 223.07 325.37 225.98 328.96 225.98H905.45C909.04 225.98 911.95 223.07 911.95 219.48V216.48C911.95 212.89 909.04 209.98 905.45 209.98Z" fill="#CADCE8"/>
<path d="M950.1 813.84H292.26V181H950.1V813.84ZM304.26 801.84H938.1V193H304.26V801.84Z" fill="#426572"/>
<path d="M855.64 615.34H709.24V764.34H855.64V615.34Z" fill="#DDE4ED"/>
<path d="M696.91 615.34H404.11V764.34H696.91V615.34Z" fill="#DDE4ED"/>
<path d="M855.47 308.84H726.82V364.84H855.47V308.84Z" fill="#E8837E"/>
<path d="M855.47 375H726.82V431H855.47V375Z" fill="#87D6FE"/>
<path d="M855.47 507.34H726.82V563.34H855.47V507.34Z" fill="#FBC907"/>
<path d="M855.47 441.17H726.82V497.17H855.47V441.17Z" fill="#A8EF9E"/>
<path opacity="0.2" d="M367.08 185.36C374.121 172.238 378.456 157.836 379.831 143.008C381.205 128.18 379.59 113.227 375.082 99.0337C370.573 84.8409 363.262 71.6971 353.582 60.3807C343.902 49.0642 332.05 39.8051 318.727 33.1518C305.405 26.4984 290.882 22.586 276.02 21.6463C261.158 20.7066 246.259 22.7586 232.204 27.6809C218.149 32.6032 205.225 40.2956 194.197 50.3027C183.169 60.3098 174.26 72.4281 168 85.94C159.317 102.245 154.828 120.454 154.937 138.927C155.046 157.399 159.75 175.554 168.625 191.755C177.5 207.956 190.267 221.695 205.775 231.732C221.283 241.769 239.045 247.789 257.46 249.25C254.247 250.01 250.983 250.627 247.67 251.1C265.102 253.614 282.882 251.955 299.548 246.26C316.214 240.564 331.291 230.996 343.54 218.34C353.334 208.876 361.312 197.698 367.08 185.36V185.36Z" fill="#606060"/>
<path opacity="0.2" d="M1017.54 38.92C1003.16 35.1715 988.18 34.3394 973.475 36.4729C958.771 38.6064 944.643 43.6622 931.923 51.3423C919.204 59.0224 908.151 69.1713 899.415 81.1908C890.68 93.2102 884.44 106.857 881.062 121.326C877.685 135.795 877.238 150.794 879.749 165.439C882.26 180.084 887.677 194.077 895.682 206.595C903.686 219.113 914.116 229.902 926.356 238.325C938.596 246.748 952.399 252.635 966.95 255.64C984.823 260.311 1003.58 260.461 1021.52 256.076C1039.47 251.691 1056.04 242.909 1069.75 230.522C1083.45 218.135 1093.86 202.532 1100.03 185.12C1106.2 167.708 1107.95 149.033 1105.1 130.78C1106.58 133.727 1107.94 136.757 1109.17 139.87C1107.58 122.33 1101.84 105.419 1092.44 90.5257C1083.04 75.6326 1070.24 63.183 1055.09 54.2C1043.61 46.8563 1030.88 41.6775 1017.54 38.92V38.92Z" fill="#606060"/>
<path opacity="0.2" d="M373.82 630.83C380.318 618.665 384.311 605.322 385.565 591.588C386.819 577.854 385.307 564.008 381.119 550.868C376.931 537.728 370.151 525.561 361.181 515.085C352.212 504.61 341.233 496.038 328.895 489.877C316.556 483.716 303.108 480.091 289.344 479.215C275.581 478.34 261.782 480.232 248.762 484.779C235.742 489.327 223.766 496.438 213.541 505.692C203.316 514.947 195.049 526.157 189.23 538.66C181.178 553.776 177.014 570.659 177.114 587.786C177.215 604.913 181.575 621.746 189.804 636.767C198.032 651.788 209.87 664.526 224.249 673.831C238.628 683.136 255.096 688.717 272.17 690.07C269.19 690.77 266.167 691.343 263.1 691.79C279.265 694.123 295.753 692.585 311.208 687.304C326.663 682.022 340.643 673.148 352 661.41C361.079 652.634 368.474 642.27 373.82 630.83Z" fill="#606060"/>
<path d="M253.85 223.3C315.319 223.3 365.15 173.469 365.15 112C365.15 50.5307 315.319 0.699997 253.85 0.699997C192.381 0.699997 142.55 50.5307 142.55 112C142.55 173.469 192.381 223.3 253.85 223.3Z" fill="#FF4500"/>
<path d="M359.85 119.95C359.847 135.909 356.413 151.68 349.78 166.195C343.147 180.71 333.47 193.628 321.406 204.075C309.342 214.522 295.173 222.253 279.859 226.743C264.545 231.233 248.445 232.378 232.65 230.1C259.134 226.271 283.353 213.029 300.869 192.799C318.385 172.569 328.026 146.705 328.026 119.945C328.026 93.1853 318.385 67.3214 300.869 47.0911C283.353 26.8608 259.134 13.6185 232.65 9.78999C248.446 7.51172 264.547 8.65682 279.862 13.1477C295.176 17.6385 309.346 25.3701 321.41 35.818C333.474 46.266 343.151 59.1861 349.783 73.7021C356.415 88.2181 359.849 103.991 359.85 119.95V119.95Z" fill="#FB7C07"/>
<path d="M251.2 234.59C228 234.59 205.321 227.71 186.031 214.821C166.74 201.931 151.706 183.611 142.828 162.176C133.95 140.742 131.628 117.156 136.155 94.4022C140.681 71.648 151.854 50.7471 168.26 34.3428C184.666 17.9385 205.567 6.76758 228.322 2.24266C251.077 -2.28225 274.662 0.0421057 296.096 8.9218C317.529 17.8015 335.848 32.8377 348.736 52.1289C361.624 71.4201 368.502 94.0998 368.5 117.3C368.463 148.398 356.092 178.211 334.102 200.199C312.112 222.188 282.298 234.556 251.2 234.59V234.59ZM251.2 12C230.374 12 210.015 18.1757 192.698 29.7462C175.382 41.3168 161.885 57.7624 153.915 77.0034C145.946 96.2445 143.86 117.417 147.923 137.843C151.986 158.269 162.015 177.032 176.742 191.758C191.468 206.485 210.231 216.514 230.657 220.577C251.083 224.64 272.256 222.554 291.497 214.585C310.738 206.615 327.183 193.118 338.754 175.802C350.324 158.485 356.5 138.126 356.5 117.3C356.471 89.3816 345.367 62.6151 325.626 42.8738C305.885 23.1325 279.118 12.0291 251.2 12V12Z" fill="#426572"/>
<path d="M1005.33 17.6C976.597 17.6504 949.059 29.1063 928.769 49.4503C908.478 69.7943 897.095 97.3618 897.12 126.095C897.145 154.828 908.577 182.375 928.903 202.684C949.229 222.992 976.787 234.4 1005.52 234.4C1034.25 234.4 1061.81 222.992 1082.14 202.684C1102.46 182.375 1113.89 154.828 1113.92 126.095C1113.95 97.3618 1102.56 69.7943 1082.27 49.4503C1061.98 29.1063 1034.44 17.6504 1005.71 17.6H1005.33Z" fill="#FB7C07"/>
<path d="M1114.85 127.26C1114.82 152.885 1105.72 177.673 1089.17 197.235C1072.61 216.797 1049.67 229.871 1024.41 234.144C999.141 238.416 973.177 233.611 951.113 220.58C929.048 207.548 912.306 187.13 903.85 162.94C904.414 162.648 904.999 162.397 905.6 162.19C916.67 158.33 926.6 169.41 934.86 177.71C952.29 195.22 978.13 204.54 1002.47 200.36C1026.81 196.18 1048.64 177.86 1055.28 154.07C1061.28 132.66 1055.67 107.88 1067.64 89.15C1071.12 83.8626 1075.8 79.466 1081.29 76.3137C1086.78 73.1614 1092.93 71.3414 1099.25 71C1109.53 87.9616 1114.92 107.429 1114.85 127.26V127.26Z" fill="#FF4500"/>
<path d="M1008.33 241.9C977.955 241.9 948.824 229.833 927.345 208.355C905.866 186.876 893.8 157.745 893.8 127.37C893.8 96.9948 905.866 67.8636 927.345 46.3851C948.824 24.9065 977.955 12.84 1008.33 12.84H1008.71C1039.09 12.8904 1068.2 25.0052 1089.64 46.5194C1111.08 68.0336 1123.1 97.1848 1123.05 127.56C1123 157.935 1110.88 187.046 1089.37 208.489C1067.86 229.932 1038.71 241.95 1008.33 241.9V241.9ZM1008.33 24.84C981.222 24.889 955.243 35.6982 936.101 54.8922C916.959 74.0862 906.221 100.095 906.245 127.202C906.27 154.31 917.055 180.299 936.232 199.458C955.409 218.618 981.407 229.38 1008.52 229.38C1035.62 229.38 1061.62 218.618 1080.8 199.458C1099.97 180.299 1110.76 154.31 1110.78 127.202C1110.81 100.095 1100.07 74.0862 1080.93 54.8922C1061.79 35.6982 1035.81 24.889 1008.7 24.84H1008.33Z" fill="#426572"/>
<path d="M1022.28 207.5C987 207.5 979.9 180.37 978.19 173.58V119.32H957.84V92.19C967.216 87.5551 975.435 80.8779 981.891 72.6493C988.348 64.4207 992.879 54.8497 995.15 44.64H1015.5V92.19H1046V119.32H1015.5V166.87C1016.5 174.32 1020.57 179.77 1029.07 180.44C1037.88 179.77 1042.64 175.69 1042.99 174.1L1042.64 173.75C1042.72 173.742 1042.81 173.766 1042.87 173.818C1042.94 173.871 1042.98 173.947 1042.99 174.03C1042.99 174.053 1042.99 174.077 1042.99 174.1L1052.82 194.1C1052.82 194.1 1044 207.5 1022.28 207.5Z" fill="white"/>
<path d="M244.33 471.6C215.597 471.65 188.059 483.106 167.769 503.45C147.478 523.794 136.095 551.362 136.12 580.095C136.145 608.828 147.577 636.375 167.903 656.684C188.229 676.992 215.787 688.4 244.52 688.4C273.253 688.4 300.811 676.992 321.137 656.684C341.463 636.375 352.895 608.828 352.92 580.095C352.945 551.362 341.562 523.794 321.271 503.45C300.98 483.106 273.443 471.65 244.71 471.6H244.33Z" fill="#FF4500"/>
<path d="M353.85 581.26C353.818 606.885 344.72 631.673 328.167 651.235C311.614 670.797 288.674 683.871 263.407 688.144C238.141 692.416 212.177 687.611 190.113 674.58C168.048 661.548 151.306 641.13 142.85 616.94C143.414 616.648 143.999 616.397 144.6 616.19C155.67 612.33 165.6 623.41 173.86 631.71C191.29 649.22 217.13 658.54 241.47 654.36C265.81 650.18 287.64 631.86 294.28 608.07C300.28 586.66 294.67 561.88 306.64 543.15C310.122 537.863 314.795 533.466 320.285 530.314C325.775 527.161 331.929 525.341 338.25 525C348.525 541.962 353.923 561.429 353.85 581.26Z" fill="#FB7C07"/>
<path d="M247.33 695.9C216.955 695.9 187.824 683.833 166.345 662.355C144.867 640.876 132.8 611.745 132.8 581.37C132.8 550.995 144.867 521.864 166.345 500.385C187.824 478.907 216.955 466.84 247.33 466.84H247.71C278.085 466.89 307.196 479.005 328.639 500.519C350.082 522.034 362.1 551.185 362.05 581.56C362 611.935 349.885 641.046 328.371 662.489C306.856 683.932 277.705 695.95 247.33 695.9V695.9ZM247.33 478.84C220.222 478.889 194.243 489.698 175.101 508.892C155.959 528.086 145.221 554.095 145.245 581.202C145.27 608.31 156.055 634.299 175.232 653.458C194.409 672.618 220.407 683.38 247.515 683.38C274.623 683.38 300.621 672.618 319.798 653.458C338.975 634.299 349.76 608.31 349.785 581.202C349.81 554.095 339.071 528.086 319.929 508.892C300.787 489.698 274.808 478.889 247.7 478.84H247.33Z" fill="#426572"/>
<path d="M231.65 643.6V571L211.65 590.81L191.47 569.81L236.62 525.58H267.29V643.6H231.65Z" fill="white"/>
<path d="M700.94 587.84H409.58L469.58 504.98L509.58 543.7L566.73 445.69L700.94 587.84Z" fill="#DDE4ED"/>
<path d="M520.55 434.69C526.064 434.69 531.454 433.055 536.039 429.991C540.624 426.928 544.198 422.574 546.308 417.479C548.418 412.385 548.97 406.779 547.894 401.371C546.819 395.963 544.163 390.995 540.264 387.096C536.365 383.197 531.397 380.541 525.989 379.466C520.581 378.39 514.975 378.942 509.881 381.052C504.786 383.162 500.432 386.736 497.369 391.321C494.305 395.906 492.67 401.296 492.67 406.81C492.702 414.195 495.649 421.268 500.871 426.489C506.092 431.711 513.166 434.658 520.55 434.69Z" fill="#DDE4ED"/>
<path d="M993.46 457H981.46V479.5H993.46V457Z" fill="#426572"/>
<path d="M993.46 381.84H981.46V442.5H993.46V381.84Z" fill="#426572"/>
<path d="M292.86 166.28C260.2 170.91 219.94 158.93 219.94 158.93L200.09 162.88C199.22 163.048 198.323 163.017 197.467 162.79C196.61 162.562 195.816 162.145 195.143 161.568C194.47 160.992 193.936 160.271 193.581 159.459C193.225 158.647 193.057 157.766 193.09 156.88C193.492 142.684 193.128 128.477 192 114.32C191.9 113.297 192.07 112.266 192.493 111.329C192.917 110.393 193.579 109.584 194.413 108.983C195.248 108.383 196.225 108.012 197.247 107.908C198.27 107.804 199.302 107.97 200.24 108.39C204.712 110.597 209.614 111.799 214.6 111.91C226.65 111.81 237.17 102.57 242.55 91.6C247.93 80.63 249.15 73.52 250.28 61.32C250.77 55.99 251.55 50.08 255.6 46.66C262.6 40.73 274.12 47.66 276.39 56.61C278.66 65.56 275 69.51 271.91 78.24C269.91 83.92 270.35 84.24 268.73 90.09C268.524 90.5649 268.422 91.0788 268.433 91.5965C268.443 92.1143 268.565 92.6237 268.79 93.09C269.08 93.4153 269.434 93.6773 269.83 93.8597C270.225 94.042 270.654 94.1409 271.09 94.15C277.63 94.99 281.92 97.43 288.47 98.15C291.479 98.4754 294.339 99.6317 296.728 101.49C299.118 103.348 300.943 105.834 302 108.67V157.76C302.01 158.931 301.777 160.092 301.316 161.168C300.854 162.245 300.174 163.213 299.319 164.013C298.463 164.813 297.451 165.427 296.346 165.815C295.241 166.204 294.068 166.359 292.9 166.27L292.86 166.28Z" fill="#F8F8F8"/>
</g>
<defs>
<linearGradient id="paint0_linear" x1="1.32002" y1="442.89" x2="1254.6" y2="442.89" gradientUnits="userSpaceOnUse">
<stop stop-color="#FF4500"/>
<stop offset="1" stop-color="#FB7C07"/>
</linearGradient>
<clipPath id="clip0">
<rect width="1286.04" height="814.84" fill="white"/>
</clipPath>
</defs>
</svg>
