<svg width="297" height="159" viewBox="0 0 297 159" fill="none" xmlns="http://www.w3.org/2000/svg">
<g clip-path="url(#clip0)">
<g opacity="0.3">
<path opacity="0.3" d="M66.6762 54.9685V144.114C66.6762 145.003 66.5001 145.882 66.1581 146.703C65.816 147.523 65.3147 148.268 64.6832 148.894C64.0516 149.52 63.3021 150.015 62.478 150.351C61.6539 150.686 60.7715 150.856 59.8815 150.849H48.2352C50.504 150.849 52.6798 149.949 54.2841 148.348C55.8884 146.746 56.7897 144.573 56.7897 142.308C56.7897 140.043 55.8884 137.87 54.2841 136.269C52.6798 134.667 50.504 133.767 48.2352 133.767H8.5545C6.28571 133.767 4.10983 132.867 2.50555 131.265C0.901275 129.664 0 127.491 0 125.226C0 122.961 0.901275 120.788 2.50555 119.186C4.10983 117.584 6.28571 116.685 8.5545 116.685H30.234C32.5028 116.685 34.6787 115.785 36.283 114.183C37.8873 112.581 38.7885 110.409 38.7885 108.143C38.7885 105.878 37.8873 103.706 36.283 102.104C34.6787 100.502 32.5028 99.6023 30.234 99.6023H8.5545C6.28571 99.6023 4.10983 98.7024 2.50555 97.1006C0.901275 95.4988 0 93.3264 0 91.0611C0 88.7958 0.901275 86.6234 2.50555 85.0216C4.10983 83.4198 6.28571 82.5199 8.5545 82.5199H36.4788C38.7476 82.5199 40.9235 81.6201 42.5278 80.0183C44.1321 78.4165 45.0333 76.244 45.0333 73.9788C45.0333 71.7135 44.1321 69.541 42.5278 67.9392C40.9235 66.3375 38.7476 65.4376 36.4788 65.4376H20.323C18.0543 65.4376 15.8784 64.5377 14.2741 62.9359C12.6698 61.3341 11.7685 59.1617 11.7685 56.8964C11.7685 54.6312 12.6698 52.4587 14.2741 50.8569C15.8784 49.2551 18.0543 48.3552 20.323 48.3552H59.8815C61.6581 48.3421 63.3681 49.0292 64.6403 50.2675C65.9125 51.5057 66.6441 53.195 66.6762 54.9685V54.9685Z" fill="#BDDFE9"/>
<path opacity="0.3" d="M230.324 18.3025V107.485C230.324 108.37 230.499 109.247 230.838 110.065C231.178 110.883 231.676 111.626 232.304 112.251C232.932 112.877 233.677 113.373 234.497 113.711C235.316 114.048 236.195 114.221 237.082 114.22H248.765C246.496 114.22 244.32 113.32 242.716 111.718C241.112 110.116 240.21 107.944 240.21 105.679C240.21 103.413 241.112 101.241 242.716 99.6392C244.32 98.0374 246.496 97.1375 248.765 97.1375H288.409C290.678 97.1375 292.854 96.2377 294.458 94.6359C296.062 93.0341 296.963 90.8616 296.963 88.5964C296.963 86.3311 296.062 84.1586 294.458 82.5568C292.854 80.9551 290.678 80.0552 288.409 80.0552H266.766C264.497 80.0552 262.321 79.1553 260.717 77.5535C259.113 75.9518 258.211 73.7793 258.211 71.514C258.211 69.2488 259.113 67.0763 260.717 65.4745C262.321 63.8727 264.497 62.9728 266.766 62.9728H288.409C290.678 62.9728 292.854 62.073 294.458 60.4712C296.062 58.8694 296.963 56.6969 296.963 54.4317C296.963 52.1664 296.062 49.9939 294.458 48.3922C292.854 46.7904 290.678 45.8905 288.409 45.8905H260.509C258.24 45.8905 256.064 44.9906 254.46 43.3888C252.856 41.7871 251.954 39.6146 251.954 37.3493C251.954 35.0841 252.856 32.9116 254.46 31.3098C256.064 29.708 258.24 28.8082 260.509 28.8082H276.677C278.946 28.8082 281.122 27.9083 282.726 26.3065C284.33 24.7047 285.231 22.5322 285.231 20.267C285.231 18.0017 284.33 15.8292 282.726 14.2275C281.122 12.6257 278.946 11.7258 276.677 11.7258H237.082C235.318 11.7221 233.623 12.4085 232.359 13.6379C231.096 14.8672 230.365 16.5417 230.324 18.3025V18.3025Z" fill="#BDDFE9"/>
</g>
<path d="M234.161 145.944C234.163 147.607 233.836 149.255 233.2 150.792C232.564 152.329 231.631 153.726 230.454 154.904C229.278 156.081 227.88 157.015 226.342 157.653C224.803 158.291 223.154 158.62 221.488 158.622H54.8832C53.571 158.622 52.2717 158.363 51.0596 157.862C49.8474 157.36 48.7462 156.625 47.8189 155.698C46.8916 154.771 46.1564 153.67 45.6554 152.459C45.1544 151.249 44.8973 149.951 44.8989 148.641V16.6797C44.8989 14.0358 45.9508 11.5002 47.8232 9.63069C49.6957 7.76118 52.2352 6.71091 54.8832 6.71091H180.17C176.875 6.81304 173.75 8.19154 171.456 10.5545C169.162 12.9174 167.879 16.0791 167.879 19.3701C167.879 22.6611 169.162 25.8229 171.456 28.1858C173.75 30.5487 176.875 31.9272 180.17 32.0294H204.086C207.38 32.1315 210.506 33.51 212.8 35.8729C215.094 38.2359 216.377 41.3976 216.377 44.6886C216.377 47.9796 215.094 51.1414 212.8 53.5043C210.506 55.8672 207.38 57.2457 204.086 57.3478H162.768C161.103 57.3478 159.456 57.6751 157.918 58.311C156.38 58.9469 154.983 59.8789 153.807 61.0539C152.63 62.2288 151.696 63.6237 151.059 65.1588C150.423 66.694 150.095 68.3393 150.095 70.001C150.095 71.6626 150.423 73.308 151.059 74.8431C151.696 76.3783 152.63 77.7731 153.807 78.9481C154.983 80.1231 156.38 81.0551 157.918 81.691C159.456 82.3268 161.103 82.6541 162.768 82.6541H194.835C198.129 82.7563 201.255 84.1348 203.549 86.4977C205.843 88.8606 207.126 92.0224 207.126 95.3134C207.126 98.6043 205.843 101.766 203.549 104.129C201.255 106.492 198.129 107.87 194.835 107.973H162.768C161.07 107.92 159.378 108.208 157.794 108.821C156.209 109.433 154.764 110.357 153.545 111.538C152.325 112.719 151.355 114.132 150.693 115.694C150.03 117.256 149.689 118.936 149.689 120.632C149.689 122.328 150.03 124.007 150.693 125.569C151.355 127.131 152.325 128.545 153.545 129.725C154.764 130.906 156.209 131.83 157.794 132.443C159.378 133.055 161.07 133.344 162.768 133.291H221.488C224.849 133.291 228.073 134.624 230.449 136.997C232.826 139.37 234.161 142.588 234.161 145.944V145.944Z" fill="white"/>
<path d="M96.9103 51.6619C96.9036 58.0169 95.4724 64.2899 92.7217 70.0208C89.971 75.7517 85.9704 80.7953 81.0134 84.7816C76.0564 88.768 70.2686 91.5961 64.0744 93.0584C57.8803 94.5208 51.4369 94.5805 45.2166 93.233L44.85 93.1476V85.973C36.2344 85.5417 27.9571 82.4888 21.1296 77.2244L20.7752 76.9681C20.2008 76.5411 19.6265 76.1018 19.0765 75.6382L18.9177 75.4185C14.6036 69.014 12.1156 61.5583 11.7202 53.8501C11.3249 46.1419 13.037 38.4715 16.6732 31.6604C20.3095 24.8494 25.7329 19.1541 32.3626 15.1847C38.9923 11.2153 46.5785 9.12127 54.3088 9.12684H54.8343C56.5225 9.14989 58.2078 9.27212 59.8815 9.49289V9.49289C67.8408 10.5364 75.3409 13.811 81.5122 18.937C81.8299 19.181 82.1354 19.4495 82.4287 19.7179C86.9329 23.6652 90.5518 28.5174 93.0485 33.9572C93.2929 34.4819 93.5251 35.0188 93.7329 35.5557C95.8357 40.6656 96.9152 46.1374 96.9103 51.6619V51.6619Z" fill="#BDDFE9"/>
<path d="M107.286 113.608L114.246 125.647L121.206 137.684H107.286H93.6945L93.7068 137.672H92.4986H84.4818H60.2596L72.3761 116.728L72.3762 116.727L84.482 95.7814L96.5996 116.727L96.5997 116.728L100.608 123.658L101.041 124.406L101.474 123.658L107.286 113.608Z" fill="#FF6B34" stroke="#FF4500"/>
<path d="M248.777 16.6797V148.629C248.78 149.94 248.524 151.239 248.024 152.451C247.524 153.663 246.789 154.765 245.861 155.693C244.934 156.622 243.832 157.358 242.619 157.861C241.406 158.363 240.106 158.622 238.793 158.622H221.488C224.783 158.52 227.908 157.141 230.202 154.778C232.497 152.415 233.78 149.254 233.78 145.963C233.78 142.672 232.497 139.51 230.202 137.147C227.908 134.784 224.783 133.405 221.488 133.303H162.768C161.07 133.356 159.378 133.067 157.794 132.455C156.209 131.842 154.764 130.918 153.545 129.738C152.325 128.557 151.355 127.144 150.693 125.582C150.03 124.019 149.689 122.34 149.689 120.644C149.689 118.948 150.03 117.269 150.693 115.707C151.355 114.144 152.325 112.731 153.545 111.55C154.764 110.37 156.209 109.446 157.794 108.833C159.378 108.221 161.07 107.932 162.768 107.985H194.835C198.129 107.883 201.255 106.504 203.549 104.141C205.843 101.778 207.126 98.6166 207.126 95.3256C207.126 92.0346 205.843 88.8728 203.549 86.5099C201.255 84.147 198.129 82.7685 194.835 82.6663H162.768C161.103 82.6663 159.456 82.339 157.918 81.7032C156.38 81.0673 154.983 80.1353 153.807 78.9603C152.63 77.7854 151.696 76.3905 151.059 74.8553C150.423 73.3202 150.095 71.6748 150.095 70.0132C150.095 68.3516 150.423 66.7062 151.059 65.1711C151.696 63.6359 152.63 62.241 153.807 61.0661C154.983 59.8911 156.38 58.9591 157.918 58.3232C159.456 57.6873 161.103 57.3601 162.768 57.3601H204.086C207.38 57.2579 210.506 55.8794 212.8 53.5165C215.094 51.1536 216.377 47.9918 216.377 44.7008C216.377 41.4098 215.094 38.2481 212.8 35.8851C210.506 33.5222 207.38 32.1437 204.086 32.0416H180.17C176.875 31.9395 173.75 30.5609 171.456 28.198C169.162 25.8351 167.879 22.6733 167.879 19.3824C167.879 16.0914 169.162 12.9296 171.456 10.5667C173.75 8.20375 176.875 6.82525 180.17 6.72311H238.829C241.469 6.73279 243.997 7.78566 245.861 9.65149C247.726 11.5173 248.774 14.0442 248.777 16.6797Z" fill="#DCDCDC"/>
<path d="M94.0017 6.44247H117.637C117.637 7.15441 117.353 7.83719 116.849 8.34061C116.345 8.84403 115.661 9.12684 114.948 9.12684H96.6903C95.9772 9.12684 95.2934 8.84403 94.7892 8.34061C94.285 7.83719 94.0017 7.15441 94.0017 6.44247Z" fill="white"/>
<path d="M94.0017 23.1832H117.637C117.637 23.8951 117.353 24.5779 116.849 25.0813C116.345 25.5847 115.661 25.8675 114.948 25.8675H96.6903C95.9772 25.8675 95.2934 25.5847 94.7892 25.0813C94.285 24.5779 94.0017 23.8951 94.0017 23.1832V23.1832Z" fill="white"/>
<path opacity="0.7" d="M120.264 23.1832H143.887C143.887 23.8951 143.603 24.5779 143.099 25.0813C142.595 25.5847 141.911 25.8675 141.198 25.8675H122.953C122.24 25.8675 121.556 25.5847 121.052 25.0813C120.547 24.5779 120.264 23.8951 120.264 23.1832V23.1832Z" fill="white"/>
<path d="M66.6762 6.44247H90.2989C90.2989 7.15441 90.0156 7.83719 89.5114 8.34061C89.0072 8.84403 88.3233 9.12684 87.6103 9.12684H69.3648C68.6517 9.12684 67.9679 8.84403 67.4637 8.34061C66.9595 7.83719 66.6762 7.15441 66.6762 6.44247V6.44247V6.44247Z" fill="white"/>
<path d="M30.6373 44.7435L25.0525 41.8273L18.771 42.3886L21.6795 36.8124L21.1174 30.5408L26.7145 33.4448L32.9959 32.8835L30.0752 38.4719L30.6373 44.7435Z" fill="#EEF0F1"/>
<path d="M26.58 56.1643C27.7477 56.1643 28.6942 55.2192 28.6942 54.0534C28.6942 52.8876 27.7477 51.9425 26.58 51.9425C25.4124 51.9425 24.4659 52.8876 24.4659 54.0534C24.4659 55.2192 25.4124 56.1643 26.58 56.1643Z" fill="#EEF0F1"/>
<path d="M138.595 7.11358H128.317C127.993 7.11358 127.683 6.98503 127.453 6.7562C127.224 6.52738 127.095 6.21702 127.095 5.89342C127.095 5.56981 127.224 5.25945 127.453 5.03063C127.683 4.8018 127.993 4.67325 128.317 4.67325H138.558C138.883 4.67325 139.193 4.8018 139.423 5.03063C139.652 5.25945 139.781 5.56981 139.781 5.89342C139.781 6.21702 139.652 6.52738 139.423 6.7562C139.193 6.98503 138.883 7.11358 138.558 7.11358H138.595Z" fill="#183154"/>
<path d="M130.102 159H55.1643C52.1995 158.987 49.3604 157.803 47.2674 155.706C45.1744 153.61 43.9978 150.771 43.9946 147.811V15.8622C43.9978 12.8957 45.1795 10.0516 47.2804 7.95398C49.3813 5.85635 52.2298 4.67648 55.201 4.67325H118.626C118.951 4.67325 119.261 4.8018 119.491 5.03063C119.72 5.25945 119.849 5.56981 119.849 5.89342C119.849 6.21702 119.72 6.52738 119.491 6.7562C119.261 6.98503 118.951 7.11358 118.626 7.11358H55.1643C52.8478 7.12647 50.6303 8.05349 48.9957 9.69243C47.3611 11.3314 46.4419 13.5492 46.4387 15.8622V147.811C46.4419 150.13 47.3661 152.354 49.0087 153.994C50.6512 155.634 52.8781 156.556 55.201 156.56H130.138C130.463 156.56 130.773 156.688 131.003 156.917C131.232 157.146 131.36 157.456 131.36 157.78C131.36 158.103 131.232 158.414 131.003 158.643C130.773 158.871 130.463 159 130.138 159H130.102Z" fill="#183154"/>
<path d="M150.449 159H137.006C136.682 159 136.371 158.871 136.142 158.643C135.913 158.414 135.784 158.103 135.784 157.78C135.784 157.456 135.913 157.146 136.142 156.917C136.371 156.688 136.682 156.56 137.006 156.56H150.449C150.773 156.56 151.084 156.688 151.313 156.917C151.543 157.146 151.671 157.456 151.671 157.78C151.671 158.103 151.543 158.414 151.313 158.643C151.084 158.871 150.773 159 150.449 159Z" fill="#183154"/>
<path d="M156.608 159H155.606C155.282 159 154.971 158.871 154.742 158.643C154.513 158.414 154.384 158.103 154.384 157.78C154.384 157.456 154.513 157.146 154.742 156.917C154.971 156.688 155.282 156.56 155.606 156.56H156.608C156.933 156.56 157.243 156.688 157.473 156.917C157.702 157.146 157.831 157.456 157.831 157.78C157.831 158.103 157.702 158.414 157.473 158.643C157.243 158.871 156.933 159 156.608 159Z" fill="#183154"/>
<path d="M239.074 159H162.413C162.089 159 161.778 158.871 161.549 158.643C161.32 158.414 161.191 158.103 161.191 157.78C161.191 157.456 161.32 157.146 161.549 156.917C161.778 156.688 162.089 156.56 162.413 156.56H239.074C241.398 156.56 243.626 155.638 245.27 153.997C246.913 152.357 247.836 150.131 247.836 147.811V77.8101C247.836 77.4865 247.965 77.1761 248.194 76.9473C248.423 76.7185 248.734 76.5899 249.058 76.5899C249.382 76.5899 249.693 76.7185 249.922 76.9473C250.151 77.1761 250.28 77.4865 250.28 77.8101V147.811C250.277 150.778 249.095 153.622 246.994 155.719C244.893 157.817 242.045 158.997 239.074 159V159Z" fill="#183154"/>
<path d="M249.058 72.4657C248.734 72.4657 248.423 72.3372 248.194 72.1084C247.965 71.8795 247.836 71.5692 247.836 71.2456V69.3177C247.836 68.9941 247.965 68.6837 248.194 68.4549C248.423 68.2261 248.734 68.0975 249.058 68.0975C249.382 68.0975 249.693 68.2261 249.922 68.4549C250.151 68.6837 250.28 68.9941 250.28 69.3177V71.2456C250.28 71.5692 250.151 71.8795 249.922 72.1084C249.693 72.3372 249.382 72.4657 249.058 72.4657Z" fill="#183154"/>
<path d="M249.058 64.132C248.734 64.132 248.423 64.0034 248.194 63.7746C247.965 63.5458 247.836 63.2354 247.836 62.9118V52.638C247.836 52.3144 247.965 52.0041 248.194 51.7752C248.423 51.5464 248.734 51.4178 249.058 51.4178C249.382 51.4178 249.693 51.5464 249.922 51.7752C250.151 52.0041 250.28 52.3144 250.28 52.638V62.9118C250.28 63.2354 250.151 63.5458 249.922 63.7746C249.693 64.0034 249.382 64.132 249.058 64.132Z" fill="#183154"/>
<path d="M249.058 44.3409C248.734 44.3409 248.423 44.2123 248.194 43.9835C247.965 43.7547 247.836 43.4443 247.836 43.1207V15.8622C247.836 13.5419 246.913 11.3167 245.27 9.67599C243.626 8.03531 241.398 7.11358 239.074 7.11358H152.392C152.068 7.11358 151.757 6.98503 151.528 6.7562C151.299 6.52738 151.17 6.21702 151.17 5.89342C151.17 5.56981 151.299 5.25945 151.528 5.03063C151.757 4.8018 152.068 4.67325 152.392 4.67325H239.074C242.045 4.67648 244.893 5.85635 246.994 7.95398C249.095 10.0516 250.277 12.8957 250.28 15.8622V43.1207C250.28 43.4443 250.151 43.7547 249.922 43.9835C249.693 44.2123 249.382 44.3409 249.058 44.3409Z" fill="#183154"/>
<path d="M145.426 7.11358H143.948C143.624 7.11358 143.313 6.98503 143.084 6.7562C142.854 6.52738 142.726 6.21702 142.726 5.89342C142.726 5.56981 142.854 5.25945 143.084 5.03063C143.313 4.8018 143.624 4.67325 143.948 4.67325H145.426C145.751 4.67325 146.061 4.8018 146.291 5.03063C146.52 5.25945 146.649 5.56981 146.649 5.89342C146.649 6.21702 146.52 6.52738 146.291 6.7562C146.061 6.98503 145.751 7.11358 145.426 7.11358Z" fill="#183154"/>
<path d="M87.9769 17.2532C89.4078 17.2532 90.5677 16.095 90.5677 14.6664C90.5677 13.2378 89.4078 12.0797 87.9769 12.0797C86.5461 12.0797 85.3861 13.2378 85.3861 14.6664C85.3861 16.095 86.5461 17.2532 87.9769 17.2532Z" fill="#8BBBC6"/>
<path d="M95.4315 17.2532C96.8624 17.2532 98.0223 16.095 98.0223 14.6664C98.0223 13.2378 96.8624 12.0797 95.4315 12.0797C94.0007 12.0797 92.8408 13.2378 92.8408 14.6664C92.8408 16.095 94.0007 17.2532 95.4315 17.2532Z" fill="#8BBBC6"/>
<path d="M103.228 17.2532C104.659 17.2532 105.819 16.095 105.819 14.6664C105.819 13.2378 104.659 12.0797 103.228 12.0797C101.798 12.0797 100.638 13.2378 100.638 14.6664C100.638 16.095 101.798 17.2532 103.228 17.2532Z" fill="#8BBBC6"/>
<path d="M88.148 17.851C87.5153 17.851 86.8967 17.6639 86.3704 17.3131C85.8442 16.9624 85.4338 16.4638 85.1911 15.8804C84.9484 15.297 84.8843 14.6548 85.0068 14.035C85.1294 13.4152 85.4331 12.8456 85.8797 12.398C86.3262 11.9504 86.8956 11.645 87.5159 11.5203C88.1362 11.3956 88.7796 11.4571 89.3648 11.6972C89.9501 11.9373 90.451 12.3452 90.8043 12.8693C91.1576 13.3934 91.3474 14.0103 91.3498 14.642C91.3514 15.0628 91.2698 15.4799 91.1096 15.8691C90.9494 16.2584 90.7139 16.6123 90.4164 16.9104C90.1189 17.2086 89.7654 17.4451 89.3761 17.6065C88.9869 17.768 88.5695 17.851 88.148 17.851V17.851ZM88.148 12.6897C87.7554 12.6898 87.3717 12.8063 87.0456 13.0246C86.7195 13.2429 86.4658 13.5531 86.3167 13.9157C86.1676 14.2783 86.1299 14.677 86.2083 15.0611C86.2867 15.4452 86.4777 15.7973 86.757 16.0728C87.0363 16.3482 87.3913 16.5345 87.777 16.608C88.1626 16.6815 88.5614 16.6389 88.9227 16.4855C89.284 16.3322 89.5915 16.075 89.8061 15.7468C90.0206 15.4185 90.1326 15.034 90.1278 14.642C90.1182 14.123 89.9058 13.6283 89.5359 13.2635C89.166 12.8988 88.6679 12.6928 88.148 12.6897V12.6897Z" fill="#183154"/>
<path d="M95.6026 17.851C94.9699 17.851 94.3514 17.6639 93.8251 17.3131C93.2988 16.9624 92.8884 16.4638 92.6457 15.8804C92.403 15.297 92.3389 14.6548 92.4615 14.035C92.584 13.4152 92.8878 12.8456 93.3343 12.398C93.7809 11.9504 94.3503 11.645 94.9705 11.5203C95.5908 11.3956 96.2342 11.4571 96.8195 11.6972C97.4048 11.9373 97.9056 12.3452 98.2589 12.8693C98.6122 13.3934 98.8021 14.0103 98.8045 14.642C98.8061 15.0628 98.7245 15.4799 98.5643 15.8691C98.4041 16.2584 98.1685 16.6123 97.871 16.9104C97.5735 17.2086 97.22 17.4451 96.8308 17.6065C96.4415 17.768 96.0242 17.851 95.6026 17.851V17.851ZM95.6026 12.6897C95.2101 12.6898 94.8263 12.8063 94.5003 13.0246C94.1742 13.2429 93.9205 13.5531 93.7714 13.9157C93.6223 14.2783 93.5845 14.677 93.6629 15.0611C93.7413 15.4452 93.9323 15.7973 94.2116 16.0728C94.4909 16.3482 94.846 16.5345 95.2316 16.608C95.6172 16.6815 96.0161 16.6389 96.3774 16.4855C96.7387 16.3322 97.0461 16.075 97.2607 15.7468C97.4753 15.4185 97.5872 15.034 97.5824 14.642C97.5728 14.123 97.3604 13.6283 96.9905 13.2635C96.6206 12.8988 96.1225 12.6928 95.6026 12.6897V12.6897Z" fill="#183154"/>
<path d="M103.399 17.851C102.767 17.851 102.148 17.6639 101.622 17.3131C101.096 16.9624 100.685 16.4638 100.443 15.8804C100.2 15.297 100.136 14.6548 100.258 14.035C100.381 13.4152 100.685 12.8456 101.131 12.398C101.578 11.9504 102.147 11.645 102.767 11.5203C103.388 11.3956 104.031 11.4571 104.616 11.6972C105.202 11.9373 105.702 12.3452 106.056 12.8693C106.409 13.3934 106.599 14.0103 106.601 14.642C106.605 15.0633 106.524 15.481 106.364 15.871C106.205 16.261 105.969 16.6155 105.671 16.914C105.374 17.2125 105.02 17.449 104.63 17.6098C104.24 17.7707 103.821 17.8527 103.399 17.851V17.851ZM103.399 12.6897C103.007 12.6898 102.623 12.8063 102.297 13.0246C101.971 13.2429 101.717 13.5531 101.568 13.9157C101.419 14.2783 101.381 14.677 101.46 15.0611C101.538 15.4452 101.729 15.7973 102.008 16.0728C102.288 16.3482 102.643 16.5345 103.028 16.608C103.414 16.6815 103.813 16.6389 104.174 16.4855C104.535 16.3322 104.843 16.075 105.058 15.7468C105.272 15.4185 105.384 15.034 105.379 14.642C105.373 14.122 105.161 13.6255 104.791 13.26C104.42 12.8946 103.92 12.6897 103.399 12.6897V12.6897Z" fill="#183154"/>
<path d="M221.195 50.5027H147.125C146.477 50.5027 145.855 50.2456 145.397 49.788C144.939 49.3303 144.681 48.7096 144.681 48.0624C144.681 47.4152 144.939 46.7945 145.397 46.3368C145.855 45.8791 146.477 45.622 147.125 45.622H221.195C221.843 45.622 222.465 45.8791 222.923 46.3368C223.382 46.7945 223.639 47.4152 223.639 48.0624C223.639 48.7096 223.382 49.3303 222.923 49.788C222.465 50.2456 221.843 50.5027 221.195 50.5027Z" fill="#8BBBC6"/>
<path d="M172.312 62.0943H147.125C146.477 62.0943 145.855 61.8372 145.397 61.3796C144.939 60.9219 144.681 60.3012 144.681 59.654C144.681 59.0068 144.939 58.386 145.397 57.9284C145.855 57.4707 146.477 57.2136 147.125 57.2136H172.312C172.96 57.2136 173.582 57.4707 174.04 57.9284C174.499 58.386 174.756 59.0068 174.756 59.654C174.756 60.3012 174.499 60.9219 174.04 61.3796C173.582 61.8372 172.96 62.0943 172.312 62.0943Z" fill="#8BBBC6"/>
<path d="M172.312 88.4743H147.125C146.477 88.4743 145.855 88.2172 145.397 87.7596C144.939 87.3019 144.681 86.6812 144.681 86.034C144.681 85.3868 144.939 84.7661 145.397 84.3084C145.855 83.8508 146.477 83.5937 147.125 83.5937H172.312C172.96 83.5937 173.582 83.8508 174.04 84.3084C174.499 84.7661 174.756 85.3868 174.756 86.034C174.756 86.6812 174.499 87.3019 174.04 87.7596C173.582 88.2172 172.96 88.4743 172.312 88.4743Z" fill="#389D9C"/>
<path d="M205.968 73.6859H191.767C191.119 73.6859 190.498 73.4288 190.039 72.9711C189.581 72.5135 189.323 71.8928 189.323 71.2456C189.323 70.5984 189.581 69.9776 190.039 69.52C190.498 69.0623 191.119 68.8052 191.767 68.8052H205.968C206.616 68.8052 207.238 69.0623 207.696 69.52C208.155 69.9776 208.412 70.5984 208.412 71.2456C208.412 71.8928 208.155 72.5135 207.696 72.9711C207.238 73.4288 206.616 73.6859 205.968 73.6859Z" fill="#8BBBC6"/>
<path opacity="0.8" d="M228.295 73.6859H214.095C213.446 73.6859 212.825 73.4288 212.366 72.9711C211.908 72.5135 211.651 71.8928 211.651 71.2456C211.651 70.5984 211.908 69.9776 212.366 69.52C212.825 69.0623 213.446 68.8052 214.095 68.8052H228.295C228.943 68.8052 229.565 69.0623 230.023 69.52C230.482 69.9776 230.739 70.5984 230.739 71.2456C230.739 71.8928 230.482 72.5135 230.023 72.9711C229.565 73.4288 228.943 73.6859 228.295 73.6859Z" fill="#8BBBC6"/>
<path d="M161.313 73.6859H147.125C146.477 73.6859 145.855 73.4288 145.397 72.9711C144.939 72.5135 144.681 71.8928 144.681 71.2456C144.681 70.5984 144.939 69.9776 145.397 69.52C145.855 69.0623 146.477 68.8052 147.125 68.8052H161.313C161.962 68.8052 162.583 69.0623 163.042 69.52C163.5 69.9776 163.758 70.5984 163.758 71.2456C163.758 71.8928 163.5 72.5135 163.042 72.9711C162.583 73.4288 161.962 73.6859 161.313 73.6859Z" fill="#8BBBC6"/>
<path opacity="0.3" d="M183.641 73.6859H169.452C168.804 73.6859 168.183 73.4288 167.724 72.9711C167.266 72.5135 167.008 71.8928 167.008 71.2456C167.008 70.5984 167.266 69.9776 167.724 69.52C168.183 69.0623 168.804 68.8052 169.452 68.8052H183.641C184.289 68.8052 184.911 69.0623 185.369 69.52C185.827 69.9776 186.085 70.5984 186.085 71.2456C186.085 71.8928 185.827 72.5135 185.369 72.9711C184.911 73.4288 184.289 73.6859 183.641 73.6859V73.6859Z" fill="#8BBBC6"/>
<path d="M221.195 101.396H147.125C146.477 101.396 145.855 101.139 145.397 100.681C144.939 100.223 144.681 99.6028 144.681 98.9556C144.681 98.3083 144.939 97.6876 145.397 97.23C145.855 96.7723 146.477 96.5152 147.125 96.5152H221.195C221.843 96.5152 222.465 96.7723 222.923 97.23C223.382 97.6876 223.639 98.3083 223.639 98.9556C223.639 99.6028 223.382 100.223 222.923 100.681C222.465 101.139 221.843 101.396 221.195 101.396Z" fill="#8BBBC6"/>
<path d="M172.312 112.987H147.125C146.477 112.987 145.855 112.73 145.397 112.273C144.939 111.815 144.681 111.194 144.681 110.547C144.681 109.9 144.939 109.279 145.397 108.822C145.855 108.364 146.477 108.107 147.125 108.107H172.312C172.96 108.107 173.582 108.364 174.04 108.822C174.499 109.279 174.756 109.9 174.756 110.547C174.756 111.194 174.499 111.815 174.04 112.273C173.582 112.73 172.96 112.987 172.312 112.987Z" fill="#8BBBC6"/>
<path d="M172.312 139.368H147.125C146.477 139.368 145.855 139.11 145.397 138.653C144.939 138.195 144.681 137.574 144.681 136.927C144.681 136.28 144.939 135.659 145.397 135.202C145.855 134.744 146.477 134.487 147.125 134.487H172.312C172.96 134.487 173.582 134.744 174.04 135.202C174.499 135.659 174.756 136.28 174.756 136.927C174.756 137.574 174.499 138.195 174.04 138.653C173.582 139.11 172.96 139.368 172.312 139.368Z" fill="#389D9C"/>
<path d="M205.968 124.579H191.767C191.119 124.579 190.498 124.322 190.039 123.864C189.581 123.407 189.323 122.786 189.323 122.139C189.323 121.492 189.581 120.871 190.039 120.413C190.498 119.956 191.119 119.698 191.767 119.698H205.968C206.616 119.698 207.238 119.956 207.696 120.413C208.155 120.871 208.412 121.492 208.412 122.139C208.412 122.786 208.155 123.407 207.696 123.864C207.238 124.322 206.616 124.579 205.968 124.579Z" fill="#8BBBC6"/>
<path opacity="0.8" d="M228.295 124.579H214.095C213.446 124.579 212.825 124.322 212.366 123.864C211.908 123.407 211.651 122.786 211.651 122.139C211.651 121.492 211.908 120.871 212.366 120.413C212.825 119.956 213.446 119.698 214.095 119.698H228.295C228.943 119.698 229.565 119.956 230.023 120.413C230.482 120.871 230.739 121.492 230.739 122.139C230.739 122.786 230.482 123.407 230.023 123.864C229.565 124.322 228.943 124.579 228.295 124.579Z" fill="#8BBBC6"/>
<path d="M161.313 124.579H147.125C146.477 124.579 145.855 124.322 145.397 123.864C144.939 123.407 144.681 122.786 144.681 122.139C144.681 121.492 144.939 120.871 145.397 120.413C145.855 119.956 146.477 119.698 147.125 119.698H161.313C161.962 119.698 162.583 119.956 163.042 120.413C163.5 120.871 163.758 121.492 163.758 122.139C163.758 122.786 163.5 123.407 163.042 123.864C162.583 124.322 161.962 124.579 161.313 124.579Z" fill="#8BBBC6"/>
<path opacity="0.3" d="M183.641 124.579H169.452C168.804 124.579 168.183 124.322 167.724 123.864C167.266 123.407 167.008 122.786 167.008 122.139C167.008 121.492 167.266 120.871 167.724 120.413C168.183 119.956 168.804 119.698 169.452 119.698H183.641C184.289 119.698 184.911 119.956 185.369 120.413C185.827 120.871 186.085 121.492 186.085 122.139C186.085 122.786 185.827 123.407 185.369 123.864C184.911 124.322 184.289 124.579 183.641 124.579V124.579Z" fill="#8BBBC6"/>
<path d="M90.6655 43.5112C90.6655 49.0964 89.5635 54.6269 87.4224 59.7868C85.2813 64.9467 82.1431 69.6349 78.1871 73.5837C74.231 77.5324 69.5346 80.6644 64.366 82.8006C59.1974 84.9369 53.658 86.0356 48.0641 86.034C47.4408 86.034 46.842 86.034 46.1943 86.034H45.8277C37.212 85.6027 28.9348 82.5499 22.1073 77.2854L21.7651 77.0292C21.1296 76.5289 20.543 76.0042 19.9075 75.4795C11.8909 68.4735 6.79446 58.7227 5.62316 48.1499C4.45186 37.5772 7.29075 26.9499 13.58 18.364C19.8692 9.77796 29.1523 3.85643 39.5986 1.76708C50.0449 -0.322273 60.8961 1.57222 70.0125 7.07697C71.1123 7.73586 72.1755 8.44355 73.2021 9.18785L73.3609 9.29767C77.2888 12.1957 80.6941 15.74 83.4308 19.7789C86.3604 24.1019 88.4613 28.93 89.6267 34.0183C89.7489 34.5429 89.8589 35.0798 89.9567 35.6167C90.4384 38.2204 90.6757 40.8634 90.6655 43.5112Z" fill="#FF4500"/>
<path d="M91.0932 44.1212C91.0867 55.398 86.5955 66.2107 78.6069 74.1823C70.6183 82.1539 59.7862 86.6319 48.4918 86.6319C48.1374 86.6319 47.7708 86.6319 47.4164 86.6319C47.2942 86.6319 47.172 86.6319 47.0497 86.6319C38.4954 86.3618 30.2244 83.507 23.3293 78.4446L22.9872 78.1883C22.4128 77.7613 21.8384 77.322 21.2885 76.8583C17.7931 73.9554 14.7818 70.5164 12.3674 66.6699C12.5873 66.8164 12.8195 66.9506 13.0517 67.0848C14.36 67.8845 15.7148 68.6057 17.109 69.2445C22.6841 71.8114 28.7508 73.1394 34.8901 73.1368C38.9901 73.1399 43.069 72.5523 47.0009 71.392L47.3675 71.2822C55.0829 68.9298 61.9714 64.4398 67.2325 58.3337C72.4935 52.2277 75.9112 44.7564 77.0883 36.788C77.1738 36.2512 77.2349 35.7265 77.296 35.1896C77.4579 33.6657 77.5395 32.1343 77.5404 30.6018C77.5416 27.9406 77.292 25.2852 76.795 22.6707C76.2513 19.7752 75.4034 16.9451 74.2653 14.2271C73.7155 12.9018 73.0954 11.6066 72.4077 10.347C72.0167 9.62711 71.6134 8.91941 71.1857 8.23612L71.0634 8.04089C72.2073 8.75085 73.3128 9.52063 74.3753 10.347V10.347L74.5219 10.4568C78.0686 13.2093 81.1577 16.5037 83.6752 20.2182C86.7922 24.7582 88.9846 29.8659 90.1278 35.2506C90.25 35.7753 90.36 36.3122 90.4455 36.849C90.8689 39.2502 91.0856 41.6832 91.0932 44.1212V44.1212Z" fill="#FF6B34"/>
<path d="M48.0763 58.4338C47.1399 58.435 46.2339 58.1018 45.5222 57.4943L35.5745 48.9531C35.1554 48.6599 34.8023 48.2822 34.5382 47.8446C34.274 47.4069 34.1046 46.9188 34.0408 46.4118C33.9769 45.9048 34.0201 45.39 34.1676 44.9007C34.3151 44.4113 34.5635 43.9582 34.8969 43.5705C35.2304 43.1829 35.6414 42.8692 36.1036 42.6497C36.5658 42.4302 37.0689 42.3097 37.5805 42.2961C38.0921 42.2825 38.6009 42.3759 39.0742 42.5705C39.5475 42.765 39.9747 43.0564 40.3284 43.4257L47.3797 49.4656L57.4374 34.726C57.7078 34.3254 58.0546 33.9819 58.4579 33.7151C58.8613 33.4483 59.3134 33.2635 59.7883 33.1712C60.2632 33.0788 60.7517 33.0808 61.2258 33.1769C61.7 33.2731 62.1505 33.4615 62.5517 33.7315C62.9529 34.0015 63.297 34.3478 63.5642 34.7505C63.8313 35.1532 64.0165 35.6046 64.109 36.0788C64.2014 36.5529 64.1995 37.0407 64.1032 37.5141C64.0069 37.9875 63.8181 38.4373 63.5477 38.8379L51.327 56.7256C51.014 57.1818 50.6087 57.5674 50.1372 57.8574C49.6656 58.1474 49.1384 58.3355 48.5896 58.4094C48.4193 58.4295 48.2477 58.4377 48.0763 58.4338Z" fill="white"/>
<g opacity="0.15">
<path opacity="0.15" d="M31.7127 27.3073C36.0053 27.3073 39.4851 23.8329 39.4851 19.5471C39.4851 15.2612 36.0053 11.7868 31.7127 11.7868C27.4202 11.7868 23.9404 15.2612 23.9404 19.5471C23.9404 23.8329 27.4202 27.3073 31.7127 27.3073Z" fill="white"/>
<path opacity="0.15" d="M22.755 34.8846C24.9012 34.8846 26.6411 33.1474 26.6411 31.0044C26.6411 28.8615 24.9012 27.1243 22.755 27.1243C20.6087 27.1243 18.8688 28.8615 18.8688 31.0044C18.8688 33.1474 20.6087 34.8846 22.755 34.8846Z" fill="white"/>
</g>
<path d="M5.89038 51.0152C5.59384 51.0181 5.30636 50.9133 5.08152 50.7202C4.85667 50.5271 4.70981 50.259 4.66831 49.9659C4.38517 47.9077 4.24227 45.8327 4.24059 43.7552C4.24059 43.4316 4.36934 43.1212 4.59852 42.8924C4.8277 42.6636 5.13854 42.535 5.46266 42.535C5.78677 42.535 6.09761 42.6636 6.32679 42.8924C6.55597 43.1212 6.68473 43.4316 6.68473 43.7552C6.68438 45.7184 6.81913 47.6794 7.08801 49.6242C7.13469 49.9356 7.05901 50.2529 6.87682 50.5098C6.69462 50.7668 6.41999 50.9435 6.11035 51.003L5.89038 51.0152Z" fill="#183154"/>
<path d="M8.17566 59.9468C7.92805 59.9451 7.68679 59.8684 7.48383 59.7268C7.28087 59.5851 7.12579 59.3853 7.03913 59.1537C6.48951 57.6906 6.01634 56.2 5.62153 54.6879C5.58112 54.5325 5.57185 54.3706 5.59423 54.2116C5.61661 54.0525 5.67021 53.8995 5.75195 53.7612C5.8337 53.6229 5.94198 53.5021 6.07059 53.4057C6.1992 53.3092 6.34561 53.2391 6.50142 53.1993C6.6571 53.1589 6.81922 53.1497 6.97849 53.172C7.13776 53.1944 7.29104 53.2479 7.42955 53.3295C7.56807 53.4111 7.68908 53.5192 7.78566 53.6476C7.88223 53.7761 7.95247 53.9222 7.99235 54.0778C8.36412 55.5068 8.80872 56.9159 9.32441 58.2996C9.43573 58.6007 9.42376 58.9334 9.29109 59.2258C9.15842 59.5181 8.91573 59.7465 8.6156 59.8614C8.47618 59.9191 8.32656 59.9481 8.17566 59.9468V59.9468Z" fill="#183154"/>
<path d="M19.4065 41.0952C19.8927 41.0952 20.3589 40.9024 20.7027 40.5592C21.0465 40.2159 21.2396 39.7504 21.2396 39.265C21.2396 38.7796 21.0465 38.314 20.7027 37.9708C20.3589 37.6276 19.8927 37.4347 19.4065 37.4347C18.9203 37.4347 18.4541 37.6276 18.1103 37.9708C17.7665 38.314 17.5734 38.7796 17.5734 39.265C17.5734 39.7504 17.7665 40.2159 18.1103 40.5592C18.4541 40.9024 18.9203 41.0952 19.4065 41.0952V41.0952Z" fill="#FDFEFF"/>
<path d="M22.9383 54.2486C21.863 51.6248 21.2271 48.8423 21.0563 46.0125C20.9341 44.2555 18.1844 44.2433 18.3066 46.0125C18.5227 49.3242 19.2866 52.5772 20.5675 55.6396C21.2518 57.2624 23.6226 55.8593 22.9383 54.2486V54.2486Z" fill="#FDFEFF"/>
<path d="M249.058 23.2808H85.6183C85.2942 23.2808 84.9834 23.1522 84.7542 22.9234C84.525 22.6946 84.3962 22.3842 84.3962 22.0606C84.3962 21.737 84.525 21.4267 84.7542 21.1978C84.9834 20.969 85.2942 20.8405 85.6183 20.8405H249.058C249.382 20.8405 249.693 20.969 249.922 21.1978C250.151 21.4267 250.28 21.737 250.28 22.0606C250.28 22.3842 250.151 22.6946 249.922 22.9234C249.693 23.1522 249.382 23.2808 249.058 23.2808Z" fill="#183154"/>
<path d="M124.114 139.99H90.3233H57.2052L84.4085 92.9279L100.955 121.553L107.212 110.742L124.114 139.99ZM94.5028 137.549H119.885L107.212 115.586L100.955 126.397L84.4085 97.8086L61.4335 137.525H94.515L94.5028 137.549Z" fill="#FF6B34"/>
<path d="M48.0641 87.4982C47.4164 87.4982 46.7565 87.4982 46.121 87.4982H45.7055C36.8595 87.0533 28.3629 83.9104 21.3618 78.4934L21.0563 78.2737C20.3475 77.7247 19.7242 77.1878 19.101 76.6509C15.8602 73.8 13.0598 70.4859 10.7909 66.8164C10.0177 65.5614 9.31193 64.2662 8.67671 62.9362C8.59172 62.7915 8.53754 62.6308 8.51755 62.4642C8.49755 62.2977 8.51218 62.1288 8.56052 61.9681C8.60886 61.8074 8.68986 61.6584 8.79848 61.5304C8.90709 61.4024 9.04098 61.2981 9.19177 61.2241C9.34257 61.1501 9.50704 61.1079 9.67489 61.1002C9.84275 61.0925 10.0104 61.1194 10.1673 61.1794C10.3243 61.2393 10.4672 61.3309 10.5871 61.4484C10.707 61.5659 10.8013 61.7069 10.8642 61.8625C11.4753 63.0826 12.0863 64.3028 12.8684 65.462C15.0256 68.9334 17.6907 72.0632 20.7752 74.7474C21.3618 75.2477 21.9973 75.7602 22.5717 76.2605L22.9138 76.5045C29.5369 81.6368 37.577 84.6178 45.9499 85.0457H46.2554C46.9153 85.0457 47.4775 85.0457 48.1252 85.0457C59.0819 85.0198 69.5818 80.6602 77.326 72.9212C85.0701 65.1823 89.4273 54.6948 89.4434 43.7552C89.4446 41.1673 89.1991 38.5852 88.7102 36.0437C88.6124 35.5191 88.5146 34.9944 88.3924 34.4941C87.2761 29.5827 85.2582 24.9203 82.4409 20.7428L82.3676 20.633C79.7319 16.7322 76.4506 13.3076 72.6644 10.5056L72.4811 10.3836C71.4056 9.57018 70.3547 8.87468 69.3281 8.29713C63.5433 4.83791 56.9995 2.84257 50.266 2.48477C43.5326 2.12697 36.8136 3.41753 30.6937 6.24417C24.5738 9.0708 19.2385 13.3478 15.1521 18.7031C11.0656 24.0584 8.35184 30.3296 7.24689 36.9711C7.14594 37.2302 6.95939 37.4471 6.71814 37.5859C6.47689 37.7247 6.1954 37.7771 5.92026 37.7344C5.64513 37.6917 5.39284 37.5564 5.20517 37.3511C5.01751 37.1457 4.90571 36.8825 4.88829 36.605C6.06351 29.5793 8.93792 22.9461 13.2621 17.2807C17.5864 11.6153 23.2298 7.089 29.7028 4.09437C36.1758 1.09974 43.2828 -0.27271 50.4074 0.0960761C57.5319 0.464863 64.4587 2.56375 70.5868 6.21065C71.6745 6.86954 72.7866 7.60164 73.862 8.38255L74.0331 8.50456C78.0428 11.4523 81.5221 15.0583 84.3229 19.1688L84.4085 19.2908C87.4311 23.7315 89.5947 28.6976 90.7877 33.9328C90.9099 34.4697 91.0321 35.0188 91.1299 35.5801C91.6377 38.2716 91.8954 41.0042 91.8998 43.743C91.8868 55.3457 87.2639 66.4694 79.0456 74.6726C70.8272 82.8759 59.6849 87.4885 48.0641 87.4982V87.4982Z" fill="#183154"/>
<g opacity="0.4">
<path opacity="0.4" d="M42.6625 29.8209C46.9551 29.8209 50.4349 26.3465 50.4349 22.0606C50.4349 17.7747 46.9551 14.3004 42.6625 14.3004C38.3699 14.3004 34.8901 17.7747 34.8901 22.0606C34.8901 26.3465 38.3699 29.8209 42.6625 29.8209Z" fill="white"/>
<path opacity="0.4" d="M33.7047 37.3981C35.851 37.3981 37.5909 35.6609 37.5909 33.518C37.5909 31.3751 35.851 29.6379 33.7047 29.6379C31.5584 29.6379 29.8185 31.3751 29.8185 33.518C29.8185 35.6609 31.5584 37.3981 33.7047 37.3981Z" fill="white"/>
</g>
<path d="M99.1589 98.9556C103.411 98.9556 106.858 95.514 106.858 91.2685C106.858 87.0231 103.411 83.5815 99.1589 83.5815C94.9068 83.5815 91.4598 87.0231 91.4598 91.2685C91.4598 95.514 94.9068 98.9556 99.1589 98.9556Z" fill="#FF4500"/>
<path d="M99.5866 100.176C97.8222 100.176 96.0973 99.6533 94.6303 98.6746C93.1632 97.6958 92.0198 96.3047 91.3446 94.6772C90.6693 93.0496 90.4927 91.2586 90.8369 89.5308C91.1811 87.803 92.0308 86.2159 93.2784 84.9702C94.526 83.7245 96.1156 82.8761 97.8462 82.5324C99.5767 82.1887 101.37 82.3651 103.001 83.0393C104.631 83.7135 106.024 84.8551 107.004 86.3199C107.984 87.7847 108.508 89.5068 108.508 91.2685C108.504 93.6299 107.564 95.8936 105.891 97.5633C104.219 99.233 101.952 100.172 99.5866 100.176V100.176ZM99.5866 84.8138C98.305 84.8138 97.0523 85.1934 95.9869 85.9045C94.9215 86.6157 94.0913 87.6264 93.6015 88.8088C93.1116 89.9911 92.9841 91.292 93.235 92.5468C93.4859 93.8016 94.104 94.9539 95.011 95.8578C95.9181 96.7617 97.0733 97.3767 98.3305 97.6248C99.5877 97.873 100.89 97.7431 102.074 97.2518C103.257 96.7605 104.268 95.9297 104.978 94.8646C105.688 93.7995 106.066 92.5481 106.064 91.2685C106.06 89.5555 105.377 87.9138 104.162 86.7036C102.948 85.4935 101.302 84.8138 99.5866 84.8138V84.8138Z" fill="#183154"/>
</g>
<defs>
<clipPath id="clip0">
<rect width="297" height="159" fill="white"/>
</clipPath>
</defs>
</svg>
