<svg width="412" height="408" viewBox="0 0 412 408" fill="none" xmlns="http://www.w3.org/2000/svg">
<g filter="url(#filter0_dd)">
<path d="M168 328L376.282 126.66C386.315 116.962 394.294 105.344 399.743 92.4975C405.192 79.6512 408 65.8398 408 51.8857V0H355.078C327.496 1.29108e-07 301.043 10.9571 281.539 30.4609L72 240L168 328Z" fill="#486BE0"/>
</g>
<path d="M368 136V162.18C367.998 181.275 360.412 199.587 346.91 213.09L340 220L176 384L120 328L255.91 192.09L284 164L290.91 157.09C304.413 143.588 322.725 136.002 341.82 136H368Z" fill="#548AFF"/>
<path d="M340 220L311.56 248.44L255.91 192.09L284 164L340 220Z" fill="#4976F2"/>
<path d="M272 40V66.1799C271.998 85.2748 264.412 103.587 250.91 117.09L244 124L80 288L24 232L159.91 96.0898L188 68L194.91 61.0898C208.413 47.5884 226.725 40.0024 245.82 40H272Z" fill="#548AFF"/>
<path d="M244 124L215.56 152.44L159.91 96.09L188 68L244 124Z" fill="#4976F2"/>
<path d="M284.42 146.73L274 178L264 208L137.76 334.24L73.02 270.98L200 144L230 134L261.27 123.58C264.494 122.505 267.955 122.349 271.263 123.129C274.571 123.91 277.597 125.596 280 128C282.404 130.403 284.09 133.429 284.871 136.737C285.651 140.045 285.495 143.506 284.42 146.73V146.73Z" fill="#D1E4FF"/>
<path d="M229.657 213.657L218.343 202.343L229.373 191.313C230.206 190.48 230.866 189.492 231.317 188.403C231.768 187.315 232 186.148 232 184.97C232 183.792 231.768 182.626 231.317 181.538C230.866 180.449 230.205 179.46 229.372 178.627C228.539 177.794 227.55 177.134 226.462 176.683C225.373 176.232 224.207 176 223.029 176C221.851 176 220.684 176.232 219.596 176.683C218.508 177.134 217.519 177.795 216.686 178.628L205.657 189.657L194.343 178.343L205.373 167.313C210.056 162.631 216.407 160 223.03 160C229.652 160 236.004 162.631 240.686 167.314C245.369 171.997 248 178.348 248 184.971C248 191.594 245.369 197.945 240.686 202.628L229.657 213.657Z" fill="#E8F2FF"/>
<path d="M72 312L97.3726 286.627C99.4737 284.526 101.14 282.032 102.278 279.287C103.415 276.541 104 273.599 104 270.627C104 267.656 103.415 264.714 102.278 261.968C101.14 259.223 99.4738 256.729 97.3726 254.627C95.2715 252.526 92.777 250.86 90.0317 249.722C87.2865 248.585 84.3441 248 81.3726 248C78.4011 248 75.4588 248.585 72.7135 249.722C69.9682 250.86 67.4738 252.526 65.3726 254.627L40 280L72 312Z" fill="#E0EDFF"/>
<path d="M128 368L153.373 342.627C155.474 340.526 157.14 338.032 158.278 335.287C159.415 332.541 160 329.599 160 326.627C160 323.656 159.415 320.714 158.278 317.968C157.14 315.223 155.474 312.729 153.373 310.627C151.271 308.526 148.777 306.86 146.032 305.722C143.286 304.585 140.344 304 137.373 304C134.401 304 131.459 304.585 128.713 305.722C125.968 306.86 123.474 308.526 121.373 310.627L96 336L128 368Z" fill="#E0EDFF"/>
<path d="M39.9539 343.978L135.94 247.992L159.936 271.989L63.9502 367.974L39.9539 343.978Z" fill="#E8F2FF"/>
<path d="M284.42 146.73L274 178L230 134L261.27 123.58C264.494 122.505 267.955 122.349 271.263 123.129C274.571 123.91 277.597 125.596 280 128C282.404 130.403 284.09 133.429 284.871 136.737C285.651 140.045 285.495 143.506 284.42 146.73V146.73Z" fill="#B2C6EB"/>
<path d="M184 160L104 240L0 136L16 120L37 125L145.23 150.77L184 160Z" fill="#BDD1F2"/>
<path d="M145.23 150.77L104 192L37 125L145.23 150.77Z" fill="#B2C6EB"/>
<path d="M288 392L272 408L168 304L248 224L257.23 262.77L283 371L288 392Z" fill="#BDD1F2"/>
<path d="M283 371L216 304L257.23 262.77L283 371Z" fill="#B2C6EB"/>
<defs>
<filter id="filter0_dd" x="68" y="0" width="344" height="336" filterUnits="userSpaceOnUse" color-interpolation-filters="sRGB">
<feFlood flood-opacity="0" result="BackgroundImageFix"/>
<feColorMatrix in="SourceAlpha" type="matrix" values="0 0 0 0 0 0 0 0 0 0 0 0 0 0 0 0 0 0 127 0"/>
<feOffset dy="4"/>
<feGaussianBlur stdDeviation="2"/>
<feColorMatrix type="matrix" values="0 0 0 0 0 0 0 0 0 0 0 0 0 0 0 0 0 0 0.25 0"/>
<feBlend mode="normal" in2="BackgroundImageFix" result="effect1_dropShadow"/>
<feColorMatrix in="SourceAlpha" type="matrix" values="0 0 0 0 0 0 0 0 0 0 0 0 0 0 0 0 0 0 127 0"/>
<feOffset dy="4"/>
<feGaussianBlur stdDeviation="2"/>
<feColorMatrix type="matrix" values="0 0 0 0 0 0 0 0 0 0 0 0 0 0 0 0 0 0 0.25 0"/>
<feBlend mode="normal" in2="effect1_dropShadow" result="effect2_dropShadow"/>
<feBlend mode="normal" in="SourceGraphic" in2="effect2_dropShadow" result="shape"/>
</filter>
</defs>
</svg>
