<svg width="160" height="160" viewBox="0 0 160 160" fill="none" xmlns="http://www.w3.org/2000/svg">
<path d="M160 78.0589C160 88.8196 157.881 99.4749 153.763 109.416C149.645 119.358 143.609 128.391 136 136C128.391 143.609 119.358 149.645 109.416 153.763C99.4749 157.881 88.8196 160 78.0589 160H0V81.9411C5.54846e-07 71.1804 2.11947 60.5251 6.2374 50.5836C10.3553 40.642 16.3911 31.6089 24 24C31.6089 16.3911 40.642 10.3553 50.5836 6.2374C60.5251 2.11947 71.1804 3.18128e-06 81.9411 0H160V78.0589Z" fill="#FFA100"/>
<path d="M128 64C128 78.8521 122.1 93.096 111.598 103.598C101.096 114.1 86.8521 120 72 120H40V88C40 73.1479 45.9 58.904 56.402 48.402C66.9041 37.9 81.1479 32 96 32H128V64Z" fill="#FFC431"/>
</svg>
