<svg id="flat" height="512" viewBox="0 0 512 512" width="512" xmlns="http://www.w3.org/2000/svg"><path d="m248 352 208.2823-201.33955a104 104 0 0 0 31.7177-74.7748v-51.88565h-52.92179a104 104 0 0 0 -73.5391 30.46089l-209.53911 209.53911z" fill="#486be0"/><path d="m184 406.05891a81.94105 81.94105 0 0 1 -24 57.94109 81.94105 81.94105 0 0 1 -57.94107 24h-78.05893v-78.05891a81.94105 81.94105 0 0 1 24-57.94109 81.94105 81.94105 0 0 1 57.94107-24h78.05893z" fill="#ffa100"/><path d="m152 392a56 56 0 0 1 -56 56h-32v-32a56 56 0 0 1 56-56h32z" fill="#ffc431"/><path d="m448 160v26.17993a72.01355 72.01355 0 0 1 -21.09 50.90991l-6.91 6.91016-164 164-56-56 135.91-135.91016 28.09-28.08984 6.91-6.91016a72.01378 72.01378 0 0 1 50.91-21.08984z" fill="#548aff"/><path d="m420 244-28.44 28.44-55.65-56.35 28.09-28.09z" fill="#4976f2"/><path d="m352 64v26.17993a72.01355 72.01355 0 0 1 -21.09 50.90991l-6.91 6.91016-164 164-56-56 135.91-135.91016 28.09-28.08984 6.91-6.91016a72.01378 72.01378 0 0 1 50.91-21.08984z" fill="#548aff"/><path d="m324 148-28.44 28.44-55.65-56.35 28.09-28.09z" fill="#4976f2"/><path d="m364.42 170.73-10.42 31.27-10 30-126.24 126.24-64.74-63.26 126.98-126.98 30-10 31.27-10.41992a18.30015 18.30015 0 0 1 23.15 23.14992z" fill="#d1e4ff"/><path d="m309.65674 237.65723-11.31348-11.31446 11.0293-11.02929a8.97038 8.97038 0 1 0 -12.68656-12.68555l-11.0293 11.0293-11.31348-11.31446 11.0293-11.02929a24.97074 24.97074 0 0 1 35.31348 35.31445z" fill="#e8f2ff"/><path d="m152 336 25.37259-25.37259a22.6274 22.6274 0 0 0 6.62741-16 22.62739 22.62739 0 0 0 -22.62739-22.62741 22.6274 22.6274 0 0 0 -16 6.62741l-25.37261 25.37259z" fill="#e0edff"/><path d="m208 392 25.37259-25.37259a22.6274 22.6274 0 0 0 6.62741-16 22.62739 22.62739 0 0 0 -22.62739-22.62741 22.6274 22.6274 0 0 0 -16 6.62741l-25.37261 25.37259z" fill="#e0edff"/><path d="m112.118 315.029h135.765v33.941h-135.765z" fill="#e8f2ff" transform="matrix(.707 -.707 .707 .707 -182.039 224.52)"/><path d="m364.42 170.73-10.42 31.27-44-44 31.27-10.41992a18.30015 18.30015 0 0 1 23.15 23.14992z" fill="#b2c6eb"/><path d="m264 184-80 80-104-104 16-16 21 5 108.23 25.77z" fill="#bdd1f2"/><path d="m225.23 174.77-41.23 41.23-67-67z" fill="#b2c6eb"/><path d="m368 416-16 16-104-104 80-80 9.23 38.77 25.77 108.23z" fill="#bdd1f2"/><path d="m363 395-67-67 41.23-41.23z" fill="#b2c6eb"/></svg>