<?xml version="1.0" encoding="iso-8859-1"?>
<!-- Generator: Adobe Illustrator 19.0.0, SVG Export Plug-In . SVG Version: 6.00 Build 0)  -->
<svg version="1.1" id="Layer_1" xmlns="http://www.w3.org/2000/svg" xmlns:xlink="http://www.w3.org/1999/xlink" x="0px" y="0px"
	 viewBox="0 0 512 512" style="enable-background:new 0 0 512 512;" xml:space="preserve">
<g>
	<g>
		<g>
			<path d="M503.467,396.8H315.733c-2.261,0-4.437,0.896-6.033,2.5l-14.566,14.566h-78.268L202.3,399.3
				c-1.596-1.604-3.772-2.5-6.033-2.5H8.533c-4.71,0-8.533,3.823-8.533,8.533v30.549c0,16.094,13.099,29.184,29.193,29.184h453.615
				c16.094,0,29.193-13.099,29.193-29.193v-30.541C512,400.623,508.177,396.8,503.467,396.8z"/>
			<path d="M256,216.303l30.72-17.553l20.48-11.699v-58.368L256,99.43l-51.2,29.252v58.368l20.48,11.699L256,216.303z
				 M221.867,174.933v-31.394c0-3.379,1.997-6.443,5.094-7.808l25.6-11.273c4.309-1.894,9.353,0.051,11.247,4.369
				c1.903,4.318-0.051,9.344-4.369,11.247l-20.506,9.037v25.822c0,4.71-3.823,8.533-8.533,8.533S221.867,179.644,221.867,174.933z"
				/>
			<path d="M264.535,231.083v58.368l51.2,29.252l51.2-29.252v-58.368l-51.2-29.252l-30.72,17.553L264.535,231.083z M312.296,226.859
				c4.301-1.911,9.353,0.06,11.247,4.369c1.903,4.318-0.051,9.344-4.369,11.247l-20.506,9.037v25.822
				c0,4.71-3.823,8.533-8.533,8.533s-8.533-3.823-8.533-8.533v-31.394c0-3.379,1.997-6.443,5.094-7.808L312.296,226.859z"/>
			<path d="M247.467,289.451v-58.368l-20.48-11.699l-30.72-17.553l-51.2,29.252v58.368l51.2,29.252L247.467,289.451z M179.2,277.333
				c0,4.71-3.823,8.533-8.533,8.533s-8.533-3.823-8.533-8.533v-31.394c0-3.379,1.997-6.443,5.094-7.808l25.6-11.273
				c4.318-1.911,9.353,0.06,11.247,4.369c1.903,4.318-0.051,9.344-4.369,11.247l-20.506,9.037V277.333z"/>
			<path d="M34.133,379.733h158.601L207.3,394.3c1.596,1.604,3.772,2.5,6.033,2.5h85.333c2.261,0,4.437-0.896,6.033-2.5
				l14.566-14.566h158.601c4.71,0,8.533-3.823,8.533-8.533V74.274c0-15.078-11.529-27.341-25.702-27.341H51.302
				c-14.174,0-25.702,12.262-25.702,27.341V371.2C25.6,375.91,29.423,379.733,34.133,379.733z M187.733,123.733
				c0-3.063,1.638-5.888,4.301-7.407l59.733-34.133c2.628-1.502,5.837-1.502,8.465,0l59.733,34.133
				c2.662,1.519,4.301,4.343,4.301,7.407v63.317l55.433,31.676c2.662,1.519,4.301,4.344,4.301,7.407V294.4
				c0,3.063-1.638,5.888-4.301,7.407l-59.733,34.133c-1.314,0.751-2.773,1.126-4.233,1.126s-2.918-0.375-4.232-1.126L256,304.23
				l-55.501,31.71c-1.314,0.751-2.773,1.126-4.233,1.126c-1.459,0-2.918-0.375-4.233-1.126l-59.733-34.133
				c-2.662-1.519-4.301-4.344-4.301-7.407v-68.267c0-3.063,1.638-5.888,4.301-7.407l55.433-31.676V123.733z M68.267,81.067h68.267
				c4.71,0,8.533,3.823,8.533,8.533s-3.823,8.533-8.533,8.533H68.267c-4.71,0-8.533-3.823-8.533-8.533S63.556,81.067,68.267,81.067z
				 M68.267,115.2h42.667c4.71,0,8.533,3.823,8.533,8.533s-3.823,8.533-8.533,8.533H68.267c-4.71,0-8.533-3.823-8.533-8.533
				S63.556,115.2,68.267,115.2z"/>
		</g>
	</g>
</g>
<g>
</g>
<g>
</g>
<g>
</g>
<g>
</g>
<g>
</g>
<g>
</g>
<g>
</g>
<g>
</g>
<g>
</g>
<g>
</g>
<g>
</g>
<g>
</g>
<g>
</g>
<g>
</g>
<g>
</g>
</svg>
